<?xml version="1.0" standalone="no"?>
<!DOCTYPE svg PUBLIC "-//W3C//DTD SVG 1.1//EN" "http://www.w3.org/Graphics/SVG/1.1/DTD/svg11.dtd" >
<svg>
<metadata>
Created by FontForge 20120731 at Wed May 10 21:17:57 2017
 By www
Hot Pizza (c) Dennis Ludlow 2001 All Rights Reserved
</metadata>
<defs>
<font id="HotPizza" horiz-adv-x="556" >
  <font-face 
    font-family="Hot Pizza"
    font-weight="400"
    font-stretch="normal"
    units-per-em="1000"
    panose-1="2 0 0 0 0 0 0 0 0 0"
    ascent="800"
    descent="-200"
    x-height="643"
    cap-height="927"
    bbox="-391 -166.5 1028 948"
    underline-thickness="73"
    underline-position="-70"
    unicode-range="U+0020-F005"
  />
<missing-glyph horiz-adv-x="750" 
d="M125 0h500v625h-500v-625zM141 16v593h468v-593h-468z" />
    <glyph glyph-name=".notdef" horiz-adv-x="750" 
d="M125 0h500v625h-500v-625zM141 16v593h468v-593h-468z" />
    <glyph glyph-name=".null" horiz-adv-x="0" 
 />
    <glyph glyph-name="nonmarkingreturn" horiz-adv-x="278" 
 />
    <glyph glyph-name="space" unicode=" " horiz-adv-x="278" 
 />
    <glyph glyph-name="space" unicode="&#xa0;" horiz-adv-x="278" 
 />
    <glyph glyph-name="exclam" unicode="!" horiz-adv-x="275" 
d="M255 773q0 -47 -22 -144v1q-9 -43 -20 -107t-24 -161q-2 -9 -9 -16.5t-15 -7.5h-33q-8 0 -15.5 7.5t-8.5 16.5q-12 90 -22 150t-19 103q-3 3 -3 9v2q-1 7 -1.5 14t-2.5 13q-8 37 -13 70t-5 50q0 24 8.5 46.5t23 39.5t33.5 27t41 10t41.5 -10t34 -27t23 -39.5t8.5 -46.5z
M269 210q0 -26 -10 -48t-26.5 -38.5t-38.5 -26t-47 -9.5t-47 9.5t-38.5 26t-26.5 38.5t-10 48q0 25 10 47t26.5 39t38.5 27t47 10t47 -10t38.5 -27t26.5 -39t10 -47z" />
    <glyph glyph-name="quotedbl" unicode="&#x22;" horiz-adv-x="442" 
d="M212 701q0 -28 -21 -97q-10 -31 -18.5 -65.5t-16.5 -72.5q-5 -19 -24 -19h-29q-19 0 -24 19q-8 37 -16.5 70.5t-18.5 67.5q-21 69 -21 97q0 38 25 64.5t71 26.5q45 0 69 -26.5t24 -64.5zM415 701q0 -31 -22 -97q-9 -31 -17.5 -65.5t-16.5 -72.5q-5 -19 -24 -19h-29
q-8 0 -15 6t-9 14q-8 35 -16.5 68.5t-19.5 68.5q-20 72 -20 97q0 38 24 64.5t70 26.5q45 0 70 -26.5t25 -64.5z" />
    <glyph glyph-name="numbersign" unicode="#" horiz-adv-x="562" 
d="M526 436h-98l-19 -64h90q11 0 18.5 -7.5t7.5 -18.5v-71q0 -11 -7.5 -18t-18.5 -7h-126l-39 -131q-2 -8 -9.5 -13t-15.5 -5h-66q-11 0 -18 6.5t-7 16.5v4q0 2 2 6l-1 -1l35 117h-49l-39 -131q-2 -8 -9.5 -13t-15.5 -5h-66q-11 0 -18 7t-7 17q0 3 2 9l-1 -1l34 117h-60
q-25 0 -25 25v71q0 11 7 18.5t18 7.5h97l19 64h-89q-11 0 -18.5 7t-7.5 18v72q0 11 7.5 18t18.5 7h126l41 135q5 18 24 18h66q12 0 19 -6.5t7 -16.5v-5q0 -1 -2 -5l1 1l-38 -121h50l41 135q2 8 9.5 13t15.5 5h66q25 0 25 -25q0 -2 -0.5 -3.5t-0.5 -3.5l-37 -121h61
q25 0 25 -25v-72q0 -25 -25 -25zM260 436l-19 -65h49l21 65h-51z" />
    <glyph glyph-name="dollar" unicode="$" horiz-adv-x="602" 
d="M573 316q0 -100 -72 -158q-32 -26 -67.5 -42t-77.5 -21v-106q0 -11 -7.5 -18.5t-18.5 -7.5h-45q-10 0 -17 7.5t-7 18.5v105q-45 3 -81 14.5t-68 31.5q-76 51 -76 121q0 45 25.5 75t70.5 30q48 0 75 -26.5t27 -71.5q0 -20 -4.5 -38.5t-9.5 -33.5q8 -2 18.5 -5t22.5 -5v154
q-3 0 -4 1h1q-96 9 -150.5 60.5t-54.5 136.5q0 38 13 74t40 65q24 28 62.5 47t92.5 27v77q0 11 7 18t17 7h45q11 0 18.5 -7t7.5 -18v-76q80 -8 134 -42q35 -21 51.5 -49t16.5 -61q0 -42 -25 -71t-68 -29h-12q-8 0 -11 1q131 -50 131 -185zM420 261q0 55 -64 68v-141
q33 8 48.5 27.5t15.5 45.5zM208 597q0 -51 53 -63v122q-53 -17 -53 -59zM368 520q11 -2 22 -4.5t21 -4.5q-44 24 -44 82q0 37 10 64q-11 1 -18 3h-3v-138z" />
    <glyph glyph-name="percent" unicode="%" horiz-adv-x="859" 
d="M819 281q0 -88 -60 -143q-59 -53 -143 -53q-87 0 -146 53q-58 55 -58 143q0 63 30 108l-237 -284q-4 -4 -14 -4h-75q-11 0 -18 7.5t-7 17.5q0 3 1 7.5t6 9.5v-1l282 340q-1 -2 -2 -2.5t-2 -1.5q-59 -53 -144 -53q-86 0 -145 53q-59 54 -59 141q0 88 57 139q0 1 2 3
q30 29 66 41.5t78 12.5q89 0 146 -54q1 -1 1 -2l1 -1q57 -51 57 -139q0 -60 -30 -106l236 284q4 4 14 4h76q25 0 25 -25q0 -5 -1 -9.5t-6 -9.5v1l-283 -339l3 3q30 28 67 41t79 13q85 0 144 -54q1 -1 1 -2l1 -1q29 -26 43 -61t14 -77zM647 280q0 51 -6.5 81t-25.5 30
q-17 0 -24 -28t-7 -80q0 -54 6.5 -83.5t26.5 -29.5q30 0 30 110zM263 618q0 54 -6.5 83.5t-25.5 29.5q-17 0 -23.5 -28t-6.5 -80q0 -54 6.5 -84.5t25.5 -30.5q15 0 22.5 28t7.5 82z" />
    <glyph glyph-name="ampersand" unicode="&#x26;" horiz-adv-x="839" 
d="M782 101h-268q-3 0 -10 2.5t-9 6.5q-7 7 -15.5 16t-17.5 20l-10 10q-46 -37 -93 -54t-101 -17q-95 0 -156 52q-64 54 -64 140q0 42 11.5 72t36.5 59v-1q37 46 100 77q-32 46 -45.5 81t-13.5 73q0 79 65 127v-1q31 26 67.5 37.5t79.5 11.5q41 0 75 -10.5t58.5 -30
t38 -46.5t13.5 -60q0 -52 -23 -92.5t-80 -76.5q5 -5 8.5 -9t7.5 -9h-1q13 -17 23.5 -30t19.5 -23q7 -7 13 -15t13 -17v1q10 -12 24 -27q35 57 35 94q0 1 -58 13q-19 5 -19 25v35q0 11 7.5 18t17.5 7h256q10 0 17.5 -7t7.5 -18v-35q0 -8 -7 -15.5t-15 -9.5q-35 -4 -53.5 -9
t-32.5 -20q-3 -3 -10.5 -16t-16.5 -27v1q-2 -3 -4 -6.5t-4 -6.5q-1 -1 -1.5 -2.5t-1.5 -2.5l-2.5 -5t-5.5 -10q0 -1 -0.5 -2t-0.5 1l-14 -24q-7 -14 -15 -27t-17 -25q34 -40 56 -58.5t36 -25.5q18 -10 45 -15t55 -7q9 -2 16.5 -9t7.5 -16v-36q0 -11 -7.5 -18.5t-18.5 -7.5z
M340 216q16 0 29.5 2.5t25.5 9.5q-31 37 -71 84t-76 92q-11 -17 -15 -37.5t-4 -38.5q0 -52 30 -82q17 -14 36 -22t45 -8zM403 658q0 29 -12 45t-32 16q-18 0 -29 -11.5t-11 -31.5t11.5 -44.5t35.5 -59.5q20 19 28.5 41t8.5 45z" />
    <glyph glyph-name="quotesingle" unicode="'" horiz-adv-x="211" 
d="M187 701q0 -28 -18 -97q-8 -31 -15.5 -65.5t-13.5 -72.5q-5 -19 -21 -19h-25q-16 0 -21 19q-12 75 -30 138q-17 73 -17 97q0 38 21 64.5t60 26.5q38 0 59 -26.5t21 -64.5z" />
    <glyph glyph-name="parenleft" unicode="(" horiz-adv-x="289" 
d="M356 -29q2 2 2 5v41q0 10 -5.5 17t-13.5 9q-72 14 -109.5 103t-37.5 258t37.5 258t109.5 103q8 2 13.5 9.5t5.5 15.5v43q0 11 -7 18t-17 7h-4q-61 -9 -120 -40.5t-107 -87.5q-47 -57 -75 -137t-28 -189q0 -110 28 -191.5t75 -136.5l1 -1q1 0 2 -1q46 -55 105 -85.5
t119 -38.5q4 0 6 2z" />
    <glyph glyph-name="parenright" unicode=")" horiz-adv-x="289" 
d="M358 404q0 109 -27.5 189t-75.5 137q-48 56 -106.5 87.5t-120.5 40.5h-4q-10 0 -17 -7t-7 -18v-43q0 -8 5 -15.5t13 -9.5q72 -14 110 -103t38 -258t-38 -258t-110 -103q-8 -2 -13 -9.5t-5 -16.5v-41q0 -12 7 -19t17 -7h4q62 9 121 40t106 86q48 57 75.5 138t27.5 190z
" />
    <glyph glyph-name="asterisk" unicode="*" horiz-adv-x="446" 
d="M403 583q0 -31 -18 -45t-45 -14q-18 0 -50 7l6 -4q37 -37 37 -66q0 -12 -6 -22.5t-15 -18.5t-20 -13t-21 -5q-34 0 -53 34v-1q-3 5 -5.5 13t-6.5 21q-2 5 -2.5 8t-1.5 5q-1 1 -1 3q-1 -1 -1 -2v-1l1 1q-2 -5 -4 -11l-2 -6q-4 -12 -6 -20t-4 -12q-11 -17 -22 -24.5
t-31 -7.5q-24 0 -43 16.5t-19 42.5q0 30 36 66l6 5q-19 -5 -31 -6.5t-19 -1.5q-27 0 -44.5 14t-17.5 45q0 29 17.5 45t44.5 16q8 0 18.5 -1.5t24.5 -6.5q1 -1 8 -3l-1 1q0 1 -1 2l-7 7q-34 34 -34 63q0 25 19.5 41.5t42.5 16.5q33 0 53 -30q4 -10 7.5 -20.5t8.5 -26.5
q0 1 2 7q7 24 15 40q21 30 53 30q23 0 42.5 -16t19.5 -42q0 -17 -8.5 -31t-25.5 -31l-12 -12q10 2 13 3t7.5 2t7.5 2l14 3.5t11 1.5q27 0 45 -16t18 -45z" />
    <glyph glyph-name="plus" unicode="+" horiz-adv-x="620" 
d="M559 319h-185v-184q0 -25 -25 -25h-73q-25 0 -25 25v184h-185q-11 0 -18 7.5t-7 18.5v72q0 10 7 17t18 7h185v185q0 25 25 25h73q25 0 25 -25v-185h185q11 0 18 -7t7 -17v-72q0 -11 -7 -18.5t-18 -7.5z" />
    <glyph glyph-name="comma" unicode="," horiz-adv-x="269" 
d="M252 175q0 -71 -50 -136q-23 -33 -51.5 -56.5t-64.5 -43.5q-6 -3 -11 -3q-14 0 -21 12l-20 37v-2q-3 7 -3 15q0 16 13 24q20 11 37 24t30 29h-1q9 12 15.5 23.5t8.5 23.5q-108 6 -108 109q0 21 7.5 40.5t21 34.5t32 23.5t39.5 8.5q63 0 94.5 -43.5t31.5 -119.5z" />
    <glyph glyph-name="hyphen" unicode="-" horiz-adv-x="894" 
d="M880 499l-75 71q-31 -58 -67.5 -90.5t-90.5 -32.5q-42 0 -80.5 17t-78.5 37q-39 19 -87 36.5t-110 17.5q-52 0 -98 -22.5t-80 -53.5q-37 -34 -62 -71t-38 -108l78 -26q34 66 70.5 94.5t87.5 28.5q36 0 80 -19q23 -9 43 -18t37 -17q45 -21 91.5 -37.5t104.5 -16.5
q51 0 95.5 21t82.5 55q31 28 56.5 64t40.5 70zM870 488q14 17 14 38q0 22 -13.5 38.5t-33.5 16.5t-34 -16.5t-14 -38.5q0 -23 14 -38.5t34 -15.5t33 16zM88 270q13 13 13 34t-12.5 36t-30.5 15t-31 -15t-13 -36t13 -35t31 -14t30 15z" />
    <glyph glyph-name="hyphen" unicode="&#xad;" horiz-adv-x="894" 
d="M880 499l-75 71q-31 -58 -67.5 -90.5t-90.5 -32.5q-42 0 -80.5 17t-78.5 37q-39 19 -87 36.5t-110 17.5q-52 0 -98 -22.5t-80 -53.5q-37 -34 -62 -71t-38 -108l78 -26q34 66 70.5 94.5t87.5 28.5q36 0 80 -19q23 -9 43 -18t37 -17q45 -21 91.5 -37.5t104.5 -16.5
q51 0 95.5 21t82.5 55q31 28 56.5 64t40.5 70zM870 488q14 17 14 38q0 22 -13.5 38.5t-33.5 16.5t-34 -16.5t-14 -38.5q0 -23 14 -38.5t34 -15.5t33 16zM88 270q13 13 13 34t-12.5 36t-30.5 15t-31 -15t-13 -36t13 -35t31 -14t30 15z" />
    <glyph glyph-name="period" unicode="." horiz-adv-x="301" 
d="M278 210q0 -26 -10 -48t-26.5 -38.5t-38.5 -26t-47 -9.5t-47 9.5t-38.5 26t-26.5 38.5t-10 48q0 25 10 47t26.5 39t38.5 27t47 10t47 -10t38.5 -27t26.5 -39t10 -47z" />
    <glyph glyph-name="slash" unicode="/" horiz-adv-x="468" 
d="M443 821l-298 -898q-2 -8 -9.5 -13t-13.5 -5h-79q-11 0 -17.5 7.5t-6.5 18.5v4q0 1 2 5l-1 -1l298 900q2 8 10 12.5t13 4.5h79q24 0 24 -25q0 -8 -1 -10z" />
    <glyph glyph-name="zero" unicode="0" horiz-adv-x="640" 
d="M550 558q38 -39 55.5 -89t17.5 -105q0 -63 -22.5 -115t-60.5 -87q-42 -38 -95 -57.5t-123 -19.5q-73 0 -129 22.5t-94 61t-57.5 89t-19.5 106.5q0 57 18 105.5t58 90.5q37 38 93.5 61t131.5 23t133 -23.5t94 -62.5zM383 219q11 26 16 61t5 84q0 45 -5 79.5t-17 63.5
q-19 49 -59 49q-22 0 -36.5 -13t-25.5 -36q-20 -51 -20 -143q0 -45 5 -77t16 -64v1q19 -49 60 -49q20 0 35.5 12t25.5 32z" />
    <glyph glyph-name="one" unicode="1" horiz-adv-x="478" 
d="M408 101h-355q-10 0 -17 7t-7 18v33q0 11 7 18.5t17 7.5h3q1 0 1.5 0.5t1.5 0.5h1h1q2 0 4.5 0.5t4.5 0.5q5 0 10 0.5t12 1.5h1q4 1 7.5 2t6.5 2q5 1 8.5 1.5t9.5 0.5h-1q5 2 8.5 6.5t3.5 14.5v255h-85q-10 0 -17 7.5t-7 18.5v42q0 11 7 18t17 7h24q34 0 58 7.5t39 16.5
q16 12 26.5 23t16.5 20q2 3 8.5 7t11.5 4h75q24 0 24 -24v-3q-2 -29 -3 -66.5t-1 -68.5v-260q0 -18 12 -22l1 -1q1 0 2 -1q4 -2 11 -3t16 -3q11 -2 19 -2.5t14 -1.5q2 0 3 -0.5t3 -0.5q8 -1 14.5 -8.5t6.5 -17.5v-33q0 -11 -7 -18t-17 -7z" />
    <glyph glyph-name="two" unicode="2" horiz-adv-x="593" 
d="M535 101h-479q-25 0 -25 25v91q35 37 75.5 66t82.5 50q39 20 65.5 36.5t40.5 32.5q23 26 23 67q0 45 -20 64t-52 19q-5 0 -10 -0.5t-10 -1.5q5 -15 9 -32.5t4 -38.5q0 -43 -29.5 -68.5t-75.5 -25.5q-45 0 -71 28.5t-26 70.5q0 69 73 115q35 22 75.5 33t91.5 11
q111 0 181 -40q77 -45 77 -136q0 -50 -20 -80.5t-60 -53.5q-33 -18 -70 -29.5t-79 -22.5q-9 -2 -17 -4t-15 -4h261q11 0 18 -7.5t7 -18.5v-121q0 -25 -25 -25z" />
    <glyph glyph-name="three" unicode="3" horiz-adv-x="609" 
d="M505 300q32 -20 52.5 -55t20.5 -89q0 -99 -91 -162h-1q-85 -61 -216 -61q-98 0 -166 43q-75 46 -75 119q0 42 27 71.5t72 29.5q48 0 77 -25.5t29 -70.5q0 -18 -4.5 -37t-9.5 -35q7 -1 14.5 -1.5t15.5 -0.5q21 0 41 7t34 22q16 17 24.5 39.5t8.5 63.5q0 20 -3.5 40
t-14.5 34q-17 27 -67 27h-57q-10 0 -17 7.5t-7 17.5v55q0 11 7 18.5t17 7.5h40q43 0 62 27t19 84q0 87 -68 87q-8 0 -14.5 -0.5t-11.5 -1.5q5 -17 9 -37.5t4 -35.5q0 -45 -28 -70.5t-76 -25.5q-45 0 -71.5 28.5t-26.5 73.5q0 71 75 118q35 23 78.5 33t95.5 10
q73 0 120.5 -18t76.5 -44q29 -27 40.5 -57.5t11.5 -56.5q0 -24 -10 -53.5t-29 -52.5q-12 -14 -26.5 -26t-34.5 -21q16 -5 29 -11.5t24 -14.5z" />
    <glyph glyph-name="four" unicode="4" horiz-adv-x="643" 
d="M594 106h-71v-147q0 -11 -7 -18.5t-18 -7.5h-151q-10 0 -17 7.5t-7 18.5v147h-271q-25 0 -25 25v94l326 417q2 3 9 6.5t12 3.5h124q11 0 18 -7t7 -17v-376h71q25 0 25 -25v-96q0 -25 -25 -25zM172 252h151v192z" />
    <glyph glyph-name="five" unicode="5" horiz-adv-x="577" 
d="M459 363q38 -26 63.5 -69t25.5 -109q0 -112 -85 -181q-82 -70 -208 -70q-101 0 -165 43q-72 46 -72 116q0 45 27 73.5t72 28.5q46 0 75.5 -26.5t29.5 -69.5q0 -17 -4 -36t-9 -36q5 0 9.5 -0.5t8.5 -0.5q20 0 39.5 9t32.5 27q36 45 36 123q0 54 -25.5 87t-70.5 33
q-35 0 -58 -14t-41 -37h1q-7 -10 -22 -10q-2 0 -3.5 0.5t-2.5 0.5l-35 12q-6 3 -11 10t-5 15v3l42 334q1 8 8 14.5t17 6.5h374q11 0 18.5 -7t7.5 -18v-126q0 -10 -7.5 -17.5t-18.5 -7.5h-320l-10 -80q24 11 53.5 18t66.5 7q42 0 85 -9.5t81 -36.5z" />
    <glyph glyph-name="six" unicode="6" horiz-adv-x="506" 
d="M557 336q0 103 -60 166q-60 65 -147 65q-32 0 -61.5 -5.5t-57.5 -19.5q7 21 15.5 40.5t19.5 36.5q22 30 53.5 53.5t79.5 37.5h1l48 8q9 2 14.5 10t5.5 17v5l-10 45q-2 8 -8.5 13.5t-15.5 5.5h-3q-100 -11 -177.5 -46t-136.5 -92q-117 -117 -117 -293q0 -135 77 -217
q78 -81 203 -81q117 0 198 72q79 73 79 179zM342 325q0 -72 -17 -110t-45 -38q-30 0 -49 51t-19 148v13t1 18v15q14 21 29 27t35 6q30 0 47.5 -35t17.5 -95z" />
    <glyph glyph-name="seven" unicode="7" horiz-adv-x="576" 
d="M555 554l-324 -608q-3 -5 -10 -8.5t-13 -3.5h-66q-11 0 -17.5 7t-6.5 17q0 7 4 14l275 496h-178q-26 0 -41.5 -1t-29.5 -8q-8 -3 -14.5 -23t-11.5 -50q-2 -8 -10 -14t-16 -6h-32q-25 0 -25 25v224q0 25 25 25h466q25 0 25 -25v-61z" />
    <glyph glyph-name="eight" unicode="8" horiz-adv-x="641" 
d="M607 307q0 -98 -83 -161v1q-81 -63 -214 -63q-120 0 -197 53q-80 56 -80 146q0 57 28 96t88 63q-92 66 -92 169q0 88 82 148q39 29 86.5 42.5t104.5 13.5q54 0 99 -12t80 -38q74 -54 74 -133q0 -97 -98 -145q64 -34 93 -78.5t29 -101.5zM407 261q0 24 -10.5 39.5
t-29.5 29.5q-14 10 -31 18.5t-35 16.5l-8 4t-9 4q-4 2 -8 3.5t-8 3.5l1 -1q-8 2 -17 8q-8 -18 -14 -43t-6 -52q0 -55 24 -85.5t66 -30.5t63.5 23.5t21.5 61.5zM383 633q0 42 -16 66.5t-45 24.5q-28 0 -46 -20t-18 -53q0 -23 7.5 -37.5t23.5 -25.5q9 -7 16 -11t15 -9
q5 -2 9.5 -5t9.5 -6q9 -5 18 -9t17 -8q5 19 7 42.5t2 50.5z" />
    <glyph glyph-name="nine" unicode="9" horiz-adv-x="619" 
d="M586 357q0 -178 -117 -289q-116 -110 -313 -137h-3q-8 0 -15.5 5.5t-9.5 14.5l-10 44v6q0 20 19 25l42 7q1 1 3 1q51 14 84 36.5t53 51.5q12 17 21 37t16 41q-28 -15 -56.5 -19t-63.5 -4q-45 0 -82 16.5t-65 47.5q-60 63 -60 167q0 110 80 178q80 70 197 70
q127 0 203 -82q77 -81 77 -217zM373 332v24q0 2 0.5 5t0.5 5q0 97 -18.5 148t-48.5 51q-28 0 -45.5 -37t-17.5 -109q0 -63 18 -98.5t48 -35.5q17 0 32.5 6.5t29.5 25.5v4q0 2 0.5 5t0.5 6z" />
    <glyph glyph-name="colon" unicode=":" horiz-adv-x="238" 
d="M217 199q0 -23 -7.5 -43t-21 -35t-31 -24t-36.5 -9q-20 0 -37.5 9t-30.5 24t-21 35t-8 43q0 22 8 42.5t21 35.5t30.5 24t37.5 9q19 0 36.5 -9t31 -24t21 -35.5t7.5 -42.5zM217 477q0 -45 -29 -77q-27 -33 -67 -33q-20 0 -37.5 8.5t-30.5 23.5t-21 35t-8 43q0 22 8 42.5
t21 35.5t30.5 24t37.5 9q19 0 36.5 -9t31 -24t21 -35.5t7.5 -42.5z" />
    <glyph glyph-name="semicolon" unicode=";" horiz-adv-x="216" 
d="M197 150q0 72 -27.5 113.5t-81.5 41.5q-19 0 -35 -8.5t-28 -22.5t-18.5 -32t-6.5 -38q0 -47 23.5 -74t71.5 -29q-3 -13 -8.5 -24t-12.5 -22q-11 -14 -26 -26t-32 -23h1q-12 -7 -12 -23v-6t2 -7v1l17 -34q7 -11 19 -11q4 0 9 3q30 16 56 39.5t46 53.5q43 62 43 128z
M195 487q0 24 -8 44.5t-21 36.5t-31 25t-37 9q-20 0 -37.5 -9t-30.5 -25t-21 -36.5t-8 -44.5q0 -23 8 -43.5t21 -36t30.5 -24.5t37.5 -9q40 0 67 34q16 17 23 37.5t7 41.5z" />
    <glyph glyph-name="semicolon" unicode="&#x37e;" horiz-adv-x="216" 
d="M197 150q0 72 -27.5 113.5t-81.5 41.5q-19 0 -35 -8.5t-28 -22.5t-18.5 -32t-6.5 -38q0 -47 23.5 -74t71.5 -29q-3 -13 -8.5 -24t-12.5 -22q-11 -14 -26 -26t-32 -23h1q-12 -7 -12 -23v-6t2 -7v1l17 -34q7 -11 19 -11q4 0 9 3q30 16 56 39.5t46 53.5q43 62 43 128z
M195 487q0 24 -8 44.5t-21 36.5t-31 25t-37 9q-20 0 -37.5 -9t-30.5 -25t-21 -36.5t-8 -44.5q0 -23 8 -43.5t21 -36t30.5 -24.5t37.5 -9q40 0 67 34q16 17 23 37.5t7 41.5z" />
    <glyph glyph-name="less" unicode="&#x3c;" horiz-adv-x="575" 
d="M502 107l-441 223q-4 2 -7.5 8.5t-3.5 12.5v62q0 5 4.5 12.5t9.5 9.5l442 224q1 0 2.5 0.5t5.5 0.5q10 0 17 -7t7 -18v-84q0 -5 -4.5 -12.5t-9.5 -9.5l-299 -147l304 -150q3 -2 6 -8t3 -12v-84q0 -11 -7 -17.5t-17 -6.5q-9 0 -13 3h1z" />
    <glyph glyph-name="equal" unicode="=" horiz-adv-x="622" 
d="M544 386h-473q-25 0 -25 24v65q0 24 25 24h473q25 0 25 -24v-65q0 -24 -25 -24zM544 218h-473q-11 0 -18 6.5t-7 16.5v66q0 10 7 17t18 7h473q11 0 18 -7t7 -17v-66q0 -10 -7 -16.5t-18 -6.5z" />
    <glyph glyph-name="greater" unicode="&#x3e;" horiz-adv-x="577" 
d="M529 330l-441 -223h1q-4 -2 -7 -2.5t-6 -0.5q-10 0 -17 6.5t-7 17.5v84q0 6 2.5 12t6.5 8l305 150l-300 147q-5 2 -9.5 9.5t-4.5 12.5v84q0 11 7 18t17 7q4 0 5 -0.5t3 -0.5l442 -224q5 -2 9.5 -9.5t4.5 -12.5v-62q0 -6 -3.5 -12.5t-7.5 -8.5z" />
    <glyph glyph-name="question" unicode="?" horiz-adv-x="610" 
d="M399 213q0 -26 -10 -48.5t-27.5 -39.5t-40 -27t-46.5 -10q-26 0 -49 10t-40 27t-26.5 39.5t-9.5 48.5q0 42 24 74.5t61 45.5q-12 7 -12 25v203q0 11 7 20t17 10q61 5 95.5 38t34.5 93q0 45 -21 70t-58 25q-21 0 -32 -4q4 -16 8 -37t4 -40q0 -51 -29 -78t-86 -27
q-25 0 -45 9t-34.5 25t-22 37t-7.5 45q0 79 79 127q71 46 173 46q120 0 197 -68t77 -180q0 -117 -80 -189q-70 -68 -176 -83l-1 -43q0 -15 -12 -24q38 -13 63 -45.5t25 -74.5z" />
    <glyph glyph-name="at" unicode="@" horiz-adv-x="953" 
d="M516 783q93 0 156.5 -27.5t108.5 -72.5q1 -1 2 -1q43 -45 64.5 -103t21.5 -124q0 -124 -72 -212q-75 -90 -182 -90q-45 0 -77.5 12.5t-51.5 33.5q-14 -13 -32 -23q-17 -11 -33 -15.5t-42 -4.5q-69 0 -106.5 42t-37.5 112q0 48 20.5 98.5t55.5 93.5q35 42 83.5 68.5
t100.5 26.5q44 0 67 -18q4 5 9.5 9t12.5 4h117q11 0 18 -7.5t7 -18.5v-5q0 -1 -2 -5l1 1l-93 -256q-3 -6 -5 -19t-2 -21q0 -14 8 -14q58 0 93 54q41 62 41 159q0 48 -15.5 88.5t-47.5 70.5q-66 66 -192 66q-60 0 -117 -22t-102 -67q-46 -43 -73.5 -105t-27.5 -140t21.5 -134
t59.5 -93q77 -77 206 -77q75 0 130 19t100 54q13 5 17 5q6 0 12 -2.5t10 -8.5l18 -29q4 -7 4 -13q0 -5 -3 -11.5t-8 -9.5v1q-57 -45 -125 -72t-158 -27q-78 0 -153.5 25t-135.5 73q-2 2 -2 3q-61 48 -97 121t-36 170q0 85 33.5 163.5t94.5 141.5q60 60 146.5 96.5
t189.5 36.5zM420 260q9 0 17 5t18 19l69 196q-2 11 -7.5 18.5t-15.5 7.5q-14 0 -30 -16t-30 -44q-15 -32 -24 -70.5t-9 -75.5q0 -40 12 -40z" />
    <glyph glyph-name="A" unicode="A" horiz-adv-x="652" 
d="M252 871l-3 -13q-67 -227 -103.5 -346t-42.5 -130q-184 -43 -340 52q-23 0 -39 -13q29 -225 339 -173l-13 -52q-40 -25 -32 -62l13 -6h195q21 18 26 29q0 23 -13 35l36 121q65 29 118 26l35 -19q18 -57 28 -89.5t12 -40.5q-13 -13 -17 -27q4 -10 8 -18t9 -15
q10 -1 17.5 -1.5t14.5 -0.5h186q3 33 -13 55l-20 13l-198 668q19 25 16 56l-10 9h-212q-17 -32 3 -58zM357 561q42 -147 44 -145q-15 3 -38 5t-55 3l6 19l3 14l33 114z" />
    <glyph glyph-name="B" unicode="B" horiz-adv-x="649" 
d="M67 908q3 -29 26 -46v-287q-242 -111 -447 13q-24 0 -37 -16q20 -147 164 -170q183 -41 317 75q6 -39 3 -65v-222q-37 -19 -23 -56q10 -6 16 -6h383q17 5 30.5 11t21.5 11q114 79 111 206q7 121 -72 193q136 232 -78 372l-20 7h-382zM436 738q6 -133 -127 -121l-10 7v176
l23 7q78 -11 114 -69zM442 372q7 -130 -124 -130l-19 3v199l16 7q88 -7 127 -79z" />
    <glyph glyph-name="C" unicode="C" horiz-adv-x="644" 
d="M320 944l6 3q77 6 175 -35q50 29 80 1q32 -29 28 -44v-247q-48 -47 -95 -9q-17 118 -105 210q-31 13 -73 7q-24 -15 -44 -42q-99 -222 -4 -476q11 -21 32 -36l6 -6q147 -57 216 128l20 12q91 -20 57 -108q-64 -150 -232 -181q-159 -19 -280 114q-95 125 -83 302
q-16 235 194 378q56 23 102 29z" />
    <glyph glyph-name="D" unicode="D" horiz-adv-x="710" 
d="M37 892q8 -14 23 -26v-675q-34 -19 -23 -56l23 -12h152q87 -6 92 26q0 28 -27 42v596q76 79 144 -65l6 -23v-259q2 -40 -0.5 -71.5t-9.5 -55.5l-3 -7q-48 -71 -88 -98q-11 -30 -6 -53q10 -16 23 -26q111 -14 248 117t71 453q-56 157 -192 222q-21 10 -56 10h-368
q-14 -20 -9 -39z" />
    <glyph glyph-name="E" unicode="E" horiz-adv-x="661" 
d="M93 930l141 1h311l20 -7l10 -19v-168q3 -26 -4 -45q-9 -10 -30 -15t-51 5q-6 20 -22 36q-33 129 -179 97v-255l3 -16q104 0 205 77l29 3q19 -13 19 -38q-70 -137 -258 -175l-1 -161l3 -10q53 -13 156 10l33 51l28 68l10 23l10 19l10 10q49 30 81 -39l-3 -65l-4 -9v-49
q-3 -20 -3 -45l-3 -61l-3 -9l-13 -14q-23 -6 -49 -3h-467l-19 3q-10 16 -13 39q6 13 25 26v255l-71 48l-13 7q-13 10 -24 16t-21 10l-10 6l-26 7q-47 -4 -94 -33q-8 -5 -18.5 -9.5t-23.5 -9.5l-7 -3q-16 3 -26 13l4 22q142 132 328 58q1 11 1.5 24.5t0.5 27.5v229
q-11 5 -22 23q-3 16 3 32l19 9z" />
    <glyph glyph-name="F" unicode="F" horiz-adv-x="603" 
d="M52 924q-13 -6 -20 -13q-6 -38 23 -58v-223q3 -26 -3 -48q-182 68 -324 -59l-6 -26q16 -16 32 -13l19 10q58 34 114 45l35 -10q23 -6 33 -16l55 -35q28 -17 45 -33v-252q-8 -5 -14.5 -11t-11.5 -11q-3 -26 10 -42l13 -4h213q25 0 36 20q0 31 -26 45v228q221 33 272 183
q-14 19 -33 23q-120 -78 -236 -85l-3 17v255l10 4l108 1q63 -69 86 -144q45 -14 81 3q3 10 6 13v217q-3 5 -9 10.5t-14 12.5q-233 0 -354 -1t-137 -3z" />
    <glyph glyph-name="G" unicode="G" horiz-adv-x="879" 
d="M66 729q84 174 312 216q98 7 203 -35q55 28 117 3q11 -23 8 -84v-152q-5 -20 3 -42q0 -15 -11 -35q-54 -23 -103 7q-20 120 -121 212q-180 50 -191 -248q13 0 27.5 2t31 3t35.5 0.5t42 -5.5h10q269 -146 383 5q46 19 49 -23q-23 -197 -126 -218q-118 -297 -463 -210
q-23 7 -56 23l-25 16l-7 3q-245 210 -118 562zM334 500q-20 3 -48 3q-16 -181 118 -255q133 -26 206 103q-43 13 -84 35t-81 53l-60 35q-8 5 -18.5 10.5t-25.5 12.5z" />
    <glyph glyph-name="H" unicode="H" horiz-adv-x="698" 
d="M31 890q-4 9 10 39h245l10 -10q3 -33 -26 -62v-270q-3 -20 3 -42q71 47 149 6v316q-15 5 -23 26q0 20 7 33q29 6 74 3h175l10 -10q6 -36 -26 -56v-690q30 -9 20 -31q-9 -21 -66 -17h-181l-10 6q-13 36 20 41v258l-4 20q-68 40 -148 -13v-258q32 2 26 -34q-6 -20 -32 -20
h-217l-13 6l-7 30q7 13 26 26v170l-3 4q-278 -25 -304 181q16 16 42 13q110 -72 262 -66q3 22 3 53v325q-11 5 -22 23z" />
    <glyph glyph-name="I" unicode="I" horiz-adv-x="341" 
d="M25 908l10 19h232l20 -3q16 -37 -20 -59v-668l23 -29q3 -24 -10 -43h-245q-14 30 -10 46q7 5 12.5 11.5t9.5 14.5v665q-22 16 -22 46z" />
    <glyph glyph-name="J" unicode="J" horiz-adv-x="527" 
d="M250 932l-4 -29q25 -25 23 -70v-473l-4 -23l-3 -35q-12 -50 -60 -66q63 80 35 165q-42 76 -121 67q-13 -5 -24 -10.5t-21 -12.5q-112 -142 -5 -259q106 -115 256 -74q148 40 153 242l1 511q12 26 24 35q7 25 -6 42q-20 6 -35 6h-188z" />
    <glyph glyph-name="K" unicode="K" horiz-adv-x="594" 
d="M33 888q0 20 13 39h246l9 -9q7 -33 -23 -60v-199l4 -16l170 215l9 10q-29 20 -5 57q10 2 26.5 2.5t40.5 -0.5h174l10 -6q9 -20 0 -43l-40 -26q-141 -175 -210.5 -263t-73.5 -93q101 -50 201 -299q114 -291 334 -101q14 9 35 12q23 -49 13 -97q-86 -190 -314 -170l-62 26
l-58 55l-56 95l-10 26l-39 108l-7 9q-3 11 -9.5 27t-16.5 36l-63 165l-17 16q-17 -14 -36 -39v-173l23 -52l-16 -16h-216q-16 0 -32 9q-11 33 22 66v666q-16 7 -26 23z" />
    <glyph glyph-name="L" unicode="L" horiz-adv-x="419" 
d="M51 860q-17 7 -22.5 26t9.5 37h261l11 -9q9 -32 -24 -57v-710q24 -14 41 -29l7 -3l28 -25l21 -16l6 -6q17 -19 53 -41l14 -9q9 -5 24.5 -11t38.5 -11l10 -4q56 5 108 35l28 6q18 3 38 0l4 -34q-178 -264 -467 -38l-49 19h-147l-17 12q-5 34 24 63v805z" />
    <glyph glyph-name="M" unicode="M" horiz-adv-x="740" 
d="M34 903q8 16 18 23l146 2l32 -3q21 0 28.5 -5t12.5 -15l101 -372l144 377q3 7 12 13q26 6 68 3h94l8 -6q17 -36 -15 -62v-538l-180 -4v199l-4 13l-29 -126l-3 -17l-57 -213q-7 -28 -26 -39q-38 -6 -72 13q-4 14 -20 79t-45 186l-2 17l-9 32v-268q23 -17 21 -49
q-24 -26 -63 -20h-142l-14 13q-4 7 -4 33q4 12 21 23v666q-17 16 -21 45zM599 494l83 16l1 -9q6 -39 0 -99v-159q1 -115 31 -168q109 -158 263 -27q15 5 35 -6q7 -14 3 -33q-127 -135 -326 -86q-65 14 -113 53t-66 132l-3 36l-4 23v318z" />
    <glyph glyph-name="N" unicode="N" horiz-adv-x="684" 
d="M24 885q12 -20 22 -29v-673q-29 -17 -18 -47l18 -13h102q49 -3 87 6q19 37 -12 56v361q212 -409 223 -420l16 -3h167q15 8 23 28q6 19 -26 33l3 666q28 34 19 67l-19 9h-67l-110 1q-41 -35 0 -68v-349q-196 386 -220 413q-28 7 -49 3h-141q-18 -20 -18 -41z" />
    <glyph glyph-name="O" unicode="O" horiz-adv-x="860" 
d="M46 642q68 225 312 292q324 34 420 -208t-27 -435q-122 -193 -353 -179q-170 8 -285 158q-107 171 -67 372zM452 813q-17 6 -37 6q-24 -9 -44 -26q-147 -245 -17 -537q12 -13 27 -24.5t34 -21.5q43 3 73 40q67 121 67 278q4 161 -103 285z" />
    <glyph glyph-name="P" unicode="P" horiz-adv-x="729" 
d="M45 890q10 -16 23 -26v-678q-32 -20 -23 -56l14 -7h244l13 20q0 29 -26 43v618q0 26 17 40q91 10 132 -66l3 -13v-201q0 -30 -3 -52q-22 -32 -48 -55t-55 -37q-21 -42 24 -53q260 12 330 181q81 351 -253 384l-382 -2q-13 -19 -10 -40z" />
    <glyph glyph-name="Q" unicode="Q" horiz-adv-x="825" 
d="M313 915q-114 -34 -211 -167q-98 -138 -61 -341q105 -278 370 -288q72 -197 259 -187q180 -17 288 105q19 22 0 39h-10q-34 -7 -63 -10t-52 -3q-148 -10 -219 115q252 205 154 492q-131 288 -423 255zM437 807q22 -17 36 -33q86 -164 59 -331v-10q-6 -60 -16 -81
q-105 81 -223 81q-10 19 -10 43q-13 179 82 318l36 20q23 0 36 -7zM378 306q20 -52 20 -82q-78 35 -95 131q49 -17 75 -49z" />
    <glyph glyph-name="R" unicode="R" horiz-adv-x="767" 
d="M30 891q-4 9 10 39h345q152 -5 232 -101q168 -254 -101 -427q14 -7 30.5 -17.5t34.5 -25.5l26 -25l22 -33q34 -158 106 -213q94 -42 264 11q16 0 29 -10q-81 -153 -308 -133q-265 16 -259 325q-3 27 -16 43l-4 6q-37 46 -103 43q-13 6 -26 19q0 13 3 33q58 28 101 91
q3 22 3 52v186l-3 13l-4 13q-38 78 -126 65q-16 -13 -16 -39v-613q25 -13 25 -42l-16 -23q-23 -6 -48 -3h-179l-22 13q-11 36 22 55v672q-5 5 -11 11.5t-11 14.5z" />
    <glyph glyph-name="S" unicode="S" horiz-adv-x="655" 
d="M55 711q32 200 252 230q99 2 187 -43q38 29 89 20q13 -10 22 -27l4 -262q-43 -52 -105 -13l-43 105l-20 36l-6 10l-17 16q-57 53 -124 13q-43 -55 7 -108q28 -20 72 -33l23 -9l45 -17q5 -2 11.5 -5t15.5 -5q16 -10 23 -10l46 -26l16 -10q13 -10 26 -24.5t26 -34.5l14 -19
l3 -7q43 -105 0 -226q-152 -230 -433 -125q-13 4 -29 13q-53 -45 -115 -6v305q42 16 88 3q7 -11 12.5 -24.5t10.5 -27.5l13 -23l7 -20l30 -46q111 -152 212 -33q16 48 -22 92q-26 19 -63 30l-9 6q-277 56 -269 305z" />
    <glyph glyph-name="T" unicode="T" horiz-adv-x="651" 
d="M627 652h-52q-55 129 -68 145q-26 20 -55 17l-10 -20v-604q16 -10 26 -23q0 -26 -16 -42h-230q-13 6 -19 13q-8 36 22 55v617q-11 4 -60 -2q-36 10 -57 -153q-35 -6 -61 -3l-22 1q2 24 -1 28l-1 245h604v-274z" />
    <glyph glyph-name="U" unicode="U" horiz-adv-x="706" 
d="M49 858v-460q3 -50 20 -100q32 -131 158 -174q127 -45 265 6q139 52 159 265v463q33 19 23 56q-13 13 -29 13h-222l-17 -17q-3 -36 24 -62v-467q0 -15 -1 -28.5t-3 -24.5q-23 -36 -50 -50q-52 -6 -89 30q-13 25 -16 47v506q40 19 23 60l-13 6h-245q-16 -40 13 -69z" />
    <glyph glyph-name="V" unicode="V" horiz-adv-x="637" 
d="M17 906q-4 -30 30 -46l3 -13l203 -659q-33 -30 -10 -62h210l16 9q4 21 -10 49l205 685q5 1 10.5 3.5t13.5 6.5q32 32 -6 49h-200l-16 -12q-16 -30 9 -40l-119 -392l-3 7l-113 369q16 28 7 56q-14 9 -27 12h-178z" />
    <glyph glyph-name="W" unicode="W" horiz-adv-x="999" 
d="M12 907q6 -34 28 -53l174 -674q-29 -33 2 -61l160 -1q35 32 14 62l105 407l105 -403q-29 -36 6 -66l161 -1q22 37 9 60l2 16l6 20l3 14l161 640q13 7 23 17q8 26 -18 46h-158l-14 -10q-14 -30 6 -53q-47 -186 -71 -280.5t-25 -105.5q-7 19 -32 111.5t-68 265.5
q30 23 17 59q-16 10 -32 10h-181l-14 -13q-6 -36 17 -56l-96 -377l-7 16l-93 364q14 33 6 56q-9 8 -22 13h-155z" />
    <glyph glyph-name="X" unicode="X" horiz-adv-x="682" 
d="M41 889l36 -30l174 -319l-184 -343q-15 -18 -29 -23q-17 -17 3 -46l19 -3h216q41 29 -3 49l86 160l84 -150q-43 -25 -6 -59l241 -1q40 49 -21 63l-188 349l178 330q20 3 33 13q7 19 3 39q-13 10 -26 13h-204q-23 0 -36 -16q0 -27 13 -46l-68 -130l-74 130q35 30 9 62
h-247q-20 -15 -9 -42z" />
    <glyph glyph-name="Y" unicode="Y" horiz-adv-x="614" 
d="M10 884l41 -29q79 -154 121 -229t47 -82v-353q-32 -20 -23 -56q13 -9 26 -12h216l20 16q6 35 -23 52v353l10 20l161 294q10 5 17.5 8.5t14.5 5.5q13 25 7 48l-14 10h-235q-26 -32 0 -58l-67 -127l-71 127q25 28 6 58h-245q-17 -23 -9 -46z" />
    <glyph glyph-name="Z" unicode="Z" horiz-adv-x="634" 
d="M84 898q4 9 20 25h482l21 -7q15 -47 9 -80l-292 -615q11 -10 22.5 -22t25.5 -28q148 -223 301 11q18 22 51 26l21 -23q11 -161 -108 -268q-188 -117 -373 65l-46 33l-8 3h-145l-29 2l-15 16l-1 31l2 19l344 707q-68 13 -136 -8q-10 -13 -19 -29.5t-16 -36.5l-27 -65
q-8 -24 -33 -58q-36 -11 -66 22q-4 28 15 280z" />
    <glyph glyph-name="bracketleft" unicode="[" horiz-adv-x="278" 
 />
    <glyph glyph-name="backslash" unicode="\" horiz-adv-x="468" 
d="M15 821l298 -898q2 -8 9.5 -13t13.5 -5h79q11 0 17.5 7.5t6.5 18.5v4q0 1 -2 5l1 -1l-298 900q-2 8 -10 12.5t-13 4.5h-79q-24 0 -24 -25q0 -8 1 -10z" />
    <glyph glyph-name="bracketright" unicode="]" horiz-adv-x="278" 
 />
    <glyph glyph-name="asciicircum" unicode="^" horiz-adv-x="469" 
 />
    <glyph glyph-name="underscore" unicode="_" horiz-adv-x="942" 
d="M895 163l-75 71q-31 -58 -67.5 -90.5t-90.5 -32.5q-42 0 -80.5 17t-78.5 37q-39 19 -87 36.5t-110 17.5q-52 0 -98 -22.5t-80 -53.5q-37 -34 -62 -71t-38 -108l78 -26q34 66 70.5 94.5t87.5 28.5q36 0 80 -19q23 -9 43 -18t37 -17q45 -21 91.5 -37.5t104.5 -16.5
q51 0 95.5 21t82.5 55q31 28 56.5 64t40.5 70z" />
    <glyph glyph-name="grave" unicode="`" horiz-adv-x="333" 
 />
    <glyph glyph-name="a" unicode="a" horiz-adv-x="597" 
d="M36 491q-11 132 165 158q346 49 299 -277v-140l3 -18q30 -17 75 -17v-61q-162 -71 -254 30q-64 -58 -163 -55q-100 -3 -146 94q-22 169 169 214l96 28q6 2 14.5 5.5t18.5 7.5q3 19 -2 53q2 60 -62 71q-12 -3 -30 -14q23 -60 -14 -116q-102 -60 -169 37zM313 366l-2 13
q-80 -23 -102 -102q13 -105 102 -33v108z" />
    <glyph glyph-name="b" unicode="b" horiz-adv-x="626" 
d="M21 883q-3 27 16 46h173q45 1 39 -69v-243l4 -21q109 87 245 21q150 -114 99 -326q-137 -270 -428 -125q-49 -73 -112 -37q3 25 3 731q-20 2 -39 23zM408 361q12 183 -116 183q-24 -11 -43 -30v-239l4 -36q6 -11 15.5 -23t20.5 -23q123 -21 119 168z" />
    <glyph glyph-name="c" unicode="c" horiz-adv-x="565" 
d="M547 256q-107 -140 -229 -145q-123 -3 -221 63q-97 67 -78 257q21 192 231 231q304 31 274 -183q-5 -8 -13.5 -18t-18.5 -21q-195 -55 -151 152q-42 9 -73 -24q-116 -210 17 -322q121 -78 207 66z" />
    <glyph glyph-name="d" unicode="d" horiz-adv-x="621" 
d="M566 860q13 69 -62 69h-138q-68 -54 11 -69v-243l-3 -21q-110 87 -246 21q-150 -114 -99 -326q135 -271 428 -125q49 -73 112 -37q-3 25 -3 731zM218 361q-12 183 116 183q24 -11 43 -30v-239l-3 -36q-14 -23 -37 -46q-123 -21 -119 168z" />
    <glyph glyph-name="e" unicode="e" horiz-adv-x="561" 
d="M25 296q-57 269 195 361q207 34 291 -127q24 -62 11 -137q-24 -7 -75 -4h-233q-2 -61 26 -120q127 -120 242 34h16q33 -19 37 -55q-89 -137 -262 -131q-173 -3 -248 179zM329 503q7 64 -56 90q-61 -39 -61 -129h117q3 19 0 39z" />
    <glyph glyph-name="f" unicode="f" horiz-adv-x="427" 
d="M68 660q3 105 63 193q61 91 236 82h27l24 -6q85 -48 48 -145q-125 -96 -192 69l-10 -17q-15 -44 -7 -171h93v-84h-86l-11 -3v-391q57 -8 41 -62q-15 -4 -35 -5t-43 1h-187l-9 11q-13 45 37 55q-3 31 4 68v323h-97v83z" />
    <glyph glyph-name="g" unicode="g" horiz-adv-x="608" 
d="M13 553q-40 -156 100 -225q-160 -88 -22 -198q-114 -20 -114 -118q14 -111 132 -130q293 -60 466 86q11 18 19 34.5t13 31.5v44q-11 192 -325 177q-117 -12 -81 44q158 -15 277 58q88 95 37 205l7 3q55 -3 85 4v84l-18 4h-180q-19 2 -35 4t-29 7h-154q-118 -25 -178 -115
zM328 499q9 -81 -49 -127l-34 5q-62 98 -22 198q10 10 19.5 16t17.5 10q77 -23 68 -102zM290 88q62 6 107 -10q66 -104 -66 -134q-159 -16 -155 104q8 14 15.5 25.5t17.5 19.5z" />
    <glyph glyph-name="h" unicode="h" horiz-adv-x="618" 
d="M62 861v-664q-59 -8 -46 -60q6 -4 12.5 -7.5t14.5 -5.5h220l20 17q3 47 -37 51v312q30 33 66 47q58 0 72 -53v-318l4 -23l3 -36l36 -96q62 -75 148 -89q205 -49 335 86q4 19 -3 33q-20 10 -36 6q-158 -132 -270 27q-31 52 -32 168v159q6 60 0 99v10l-17 53
q-125 159 -306 20v264q6 63 -40 70h-158q-56 -47 14 -70z" />
    <glyph glyph-name="i" unicode="i" horiz-adv-x="325" 
d="M6 747q52 -79 135 -61q81 24 84 103q-36 110 -150 86q-86 -41 -69 -128zM-18 603q21 -21 45 -24v-394q-42 -7 -45 -46q5 -10 21 -17h178q48 -3 79 3q7 18 7 35q-21 21 -45 25v377q2 23 1 41.5t-3 34.5l-11 7l-17 4h-186q-24 -18 -24 -46z" />
    <glyph glyph-name="j" unicode="j" horiz-adv-x="295" 
d="M41 748q-21 87 66 134q111 19 148 -87q3 -81 -84 -111q-80 -14 -130 64zM23 604q0 25 20 43h230q17 0 31 -14q7 -55 -48 -62v-331q32 -430 -346 -389q-16 7 -29.5 17t-25.5 23q-38 92 38 145q102 30 157 -94q18 55 14 142l-3 487q-25 5 -38 33z" />
    <glyph glyph-name="k" unicode="k" horiz-adv-x="651" 
d="M8 888q0 24 17 44h231q18 0 31 -13q10 -44 -38 -58v-424l4 -20q16 24 51 51l110 110q-72 17 -7 68l211 -2l24 -4q6 -17 6 -41q-6 -10 -20 -21q-156 -46 -204 -163q88 -250 284 -354l20 -17l38 -24q12 -3 27 -13q81 -14 166 34q21 -44 -37 -72l-37 -20l-11 -4
q-353 -62 -604 376l-14 17l-12 -12l2 -135q28 -3 47 -27q0 -15 -6 -34l-21 -10h-234l-17 13q-13 48 41 58v670q-29 3 -48 27z" />
    <glyph glyph-name="l" unicode="l" horiz-adv-x="322" 
d="M57 860q-71 18 -29 68h154q88 9 74 -68v-679q39 2 43 -37q-2 -5 -8 -10.5t-14 -12.5l-241 1q-48 39 21 61v677z" />
    <glyph glyph-name="m" unicode="m" horiz-adv-x="945" 
d="M10 606q-8 32 26 49h218l-2 -21q53 20 140 21q89 2 155 -81q72 77 188 74q88 -5 135 -87q9 -23 9 -48q4 -15 4 -39v-282q33 -8 36 -42l-24 -27l-203 1q-19 0 -37 7q-28 58 43 61v269q0 23 -6 52q-60 70 -129 -13v-310q35 -4 40 -42l-17 -23h-191q-24 -3 -56 4
q-10 16 -10 41q15 15 47 20v271q3 21 -4 42l-3 16q-23 29 -66 26q-37 -17 -62 -48l-1 -304q54 -11 40 -59l-20 -10h-227l-13 6q-19 49 36 61v396q-27 0 -46 19z" />
    <glyph glyph-name="n" unicode="n" horiz-adv-x="616" 
d="M13 613q13 -19 36 -25v-400q-49 -9 -43 -50l10 -13h246q10 6 13 13q5 47 -42 50v321q59 71 124 21q10 -18 13 -41v-301q-27 -3 -46 -22q0 -24 14 -41h246l10 9q6 45 -37 54v67q-3 18 -3 32v139q23 162 -105 215q-125 26 -213 -50q-3 42 -13 60h-200q-14 -21 -10 -38z" />
    <glyph glyph-name="o" unicode="o" horiz-adv-x="610" 
d="M179 130q448 -93 408 339q-96 227 -352 187q-208 -55 -215 -254t159 -272zM341 580q24 -24 34 -45q43 -180 -17 -329q-20 -20 -48 -22t-51 16q-8 12 -14 21.5t-10 16.5q-46 172 17 325q20 20 46 27q27 0 43 -10z" />
    <glyph glyph-name="p" unicode="p" horiz-adv-x="652" 
d="M220 610q42 36 102 52q288 0 263 -322q-74 -293 -368 -200v-112l6 -23q37 -28 78 -28q36 -17 1 -49h-346q-18 41 13 45q17 3 31.5 10.5t25.5 21.5v526q-6 42 -62 68q-53 28 10 50l219 7l17 -3q7 -11 10 -43zM384 403q0 122 -103 146q-35 -8 -64 -34v-262q54 -117 140 -21
q15 38 22 80.5t5 90.5z" />
    <glyph glyph-name="q" unicode="q" horiz-adv-x="664" 
d="M391 613q-42 36 -102 52q-289 0 -263 -323q73 -295 368 -201v-112l-6 -24q-37 -28 -78 -28q-35 -16 -1 -49h346q18 41 -13 45q-17 3 -31.5 10.5t-25.5 21.5v529q6 41 62 68q53 28 -10 50l-219 7l-17 -3q-7 -11 -10 -43zM227 403q0 122 103 146q35 -8 64 -34v-262
q-54 -117 -140 -21q-15 38 -22 80.5t-5 90.5z" />
    <glyph glyph-name="r" unicode="r" horiz-adv-x="506" 
d="M245 599q45 45 113 62q40 3 85 -17q69 -64 34 -157q-38 -56 -105 -48q-79 13 -82 106q-23 -13 -48 -38v-317q44 -8 41 -55q-14 -14 -38 -14h-232l-10 14q-3 44 44 55v396q-47 6 -41 58l14 13h198l17 -3q10 -23 10 -55z" />
    <glyph glyph-name="s" unicode="s" horiz-adv-x="510" 
d="M33 523q-5 -173 211 -211l7 -5q14 -4 26.5 -8.5t22.5 -11.5q31 -30 18 -64q-80 -83 -167 23l-23 32l-5 13l-11 16q-8 21 -18 36q-34 10 -69 -2v-211q49 -27 90 5q13 -7 23 -9q222 -74 340 86q33 84 0 156l-3 5l-10 14q-21 27 -41 41l-13 6l-36 18q-5 0 -18 7q-17 3 -21 7
l-36 11l-18 7q-16 5 -29.5 10.5t-26.5 12.5q-39 36 -6 75q54 27 98 -9l13 -12l5 -6l16 -25l33 -73q49 -27 82 9l-2 182q-8 10 -18 18q-44 8 -70 -14q-74 32 -146 30q-173 -21 -198 -159z" />
    <glyph glyph-name="t" unicode="t" horiz-adv-x="375" 
d="M106 692l111 147h9v-148l119 1l1 -93h-117v-316q3 -14 12 -37q45 -22 107 -11q-12 -52 -46 -96q-150 -66 -235 67l-12 62v328l-48 -1z" />
    <glyph glyph-name="u" unicode="u" horiz-adv-x="585" 
d="M33 581q-54 15 -31 62h195l16 -4q6 -32 0 -72v-283q0 -27 18 -46q10 -10 24 -13t29.5 0.5t31.5 13t30 23.5v318q-45 6 -40 50q2 2 6.5 5.5t11.5 7.5h202l9 -16q0 -22 -9 -41l-1 -396q37 0 43 -27t-16 -42h-166q-41 22 -42 60q-167 -134 -291 15l-16 48l-3 24z" />
    <glyph glyph-name="v" unicode="v" horiz-adv-x="645" 
d="M0 591v60h335q7 -27 -4 -63q-23 0 -56 -14q3 -13 14 -32l88 -201l7 -10q8 26 84 200l4 15l3 17q-23 20 -63 25l-7 7v53q31 7 81 3h151v-63q-36 -8 -63 -32l-14 -25q-2 -5 -47 -105.5t-133 -298.5h-119l-184 408l-10 21q-27 22 -67 35z" />
    <glyph glyph-name="w" unicode="w" horiz-adv-x="947" 
d="M0 584v59l336 -1v-54l-64 -21l81 -211l99 287h120l11 -3l113 -298l74 215l-71 24l-3 62h233v-59q-32 -6 -60 -31l-166 -426h-127l-117 298l-102 -298h-124l-162 416q-25 28 -71 41z" />
    <glyph glyph-name="x" unicode="x" horiz-adv-x="695" 
d="M15 637l4 6h320q25 -62 -37 -66l62 -96l71 93q-65 -3 -48 71h318l-1 -55l-83 -29l-164 -189q124 -273 248 -351l41 -25l21 -7l6 -3q65 0 126 40l14 -8q0 -29 -27 -56l-38 -23q-10 -3 -27 -13q-300 -49 -464 254l-40 63l-34 -40l47 -79h-315l-3 64q68 17 100 46l119 118
l-154 216q-11 5 -25 8t-30 5l-7 6v50z" />
    <glyph glyph-name="y" unicode="y" horiz-adv-x="533" 
d="M-30 583q40 -10 64 -36l194 -446l10 -33q-23 -40 -36.5 -64.5t-17.5 -32.5q-70 99 -164 50q-67 -97 17 -174q74 -27 137 0l14 10q16 10 23 20l30 34l7 13l37 57l231 569q30 27 60 37v63h-147q-47 5 -77 -3v-60q40 -11 66 -30q0 -4 -80 -238l-107 248q15 7 29 11.5t28 8.5
q7 33 0 60q-23 8 -44 3h-274v-67z" />
    <glyph glyph-name="z" unicode="z" horiz-adv-x="540" 
d="M18 574q-3 36 4 78h469l25 -3v-50l-42 -59l-206 -316l-16 -22q58 -17 114 -66l45 -28l39 -15q14 -3 41 0h12q34 0 59 7l49 8l10 3h26q-40 -72 -116 -109q-185 -57 -331 80q-22 19 -55 32q-13 5 -28.5 7t-35.5 4l-7 4h-70v63q120 175 184 267.5t73 104.5l10 14h-140
q-14 -23 -25.5 -48t-21.5 -54l-7 -14h-52q-10 23 -7 112z" />
    <glyph glyph-name="braceleft" unicode="{" horiz-adv-x="334" 
 />
    <glyph glyph-name="bar" unicode="|" horiz-adv-x="260" 
 />
    <glyph glyph-name="braceright" unicode="}" horiz-adv-x="334" 
 />
    <glyph glyph-name="asciitilde" unicode="~" horiz-adv-x="584" 
 />
    <glyph glyph-name="Euro" unicode="&#x20ac;" 
 />
    <glyph glyph-name="quotesinglbase" unicode="&#x201a;" horiz-adv-x="222" 
 />
    <glyph glyph-name="florin" unicode="&#x192;" 
 />
    <glyph glyph-name="quotedblbase" unicode="&#x201e;" horiz-adv-x="333" 
 />
    <glyph glyph-name="ellipsis" unicode="&#x2026;" horiz-adv-x="1000" 
 />
    <glyph glyph-name="dagger" unicode="&#x2020;" 
 />
    <glyph glyph-name="daggerdbl" unicode="&#x2021;" 
 />
    <glyph glyph-name="circumflex" unicode="&#x2c6;" horiz-adv-x="333" 
 />
    <glyph glyph-name="perthousand" unicode="&#x2030;" horiz-adv-x="1000" 
 />
    <glyph glyph-name="Scaron" unicode="&#x160;" horiz-adv-x="667" 
 />
    <glyph glyph-name="guilsinglleft" unicode="&#x2039;" horiz-adv-x="333" 
 />
    <glyph glyph-name="OE" unicode="&#x152;" horiz-adv-x="1000" 
 />
    <glyph glyph-name="Zcaron" unicode="&#x17d;" horiz-adv-x="611" 
 />
    <glyph glyph-name="quoteleft" unicode="&#x2018;" horiz-adv-x="222" 
 />
    <glyph glyph-name="quoteright" unicode="&#x2019;" horiz-adv-x="222" 
 />
    <glyph glyph-name="quotedblleft" unicode="&#x201c;" horiz-adv-x="333" 
 />
    <glyph glyph-name="quotedblright" unicode="&#x201d;" horiz-adv-x="333" 
 />
    <glyph glyph-name="bullet" unicode="&#x2022;" horiz-adv-x="350" 
 />
    <glyph glyph-name="endash" unicode="&#x2013;" 
 />
    <glyph glyph-name="emdash" unicode="&#x2014;" horiz-adv-x="1000" 
 />
    <glyph glyph-name="tilde" unicode="&#x2dc;" horiz-adv-x="333" 
 />
    <glyph glyph-name="trademark" unicode="&#x2122;" horiz-adv-x="1000" 
 />
    <glyph glyph-name="scaron" unicode="&#x161;" horiz-adv-x="500" 
 />
    <glyph glyph-name="guilsinglright" unicode="&#x203a;" horiz-adv-x="333" 
 />
    <glyph glyph-name="oe" unicode="&#x153;" horiz-adv-x="944" 
 />
    <glyph glyph-name="zcaron" unicode="&#x17e;" horiz-adv-x="500" 
 />
    <glyph glyph-name="Ydieresis" unicode="&#x178;" horiz-adv-x="667" 
 />
    <glyph glyph-name="exclamdown" unicode="&#xa1;" horiz-adv-x="333" 
 />
    <glyph glyph-name="cent" unicode="&#xa2;" 
 />
    <glyph glyph-name="sterling" unicode="&#xa3;" 
 />
    <glyph glyph-name="yen" unicode="&#xa5;" 
 />
    <glyph glyph-name="brokenbar" unicode="&#xa6;" horiz-adv-x="260" 
 />
    <glyph glyph-name="section" unicode="&#xa7;" 
 />
    <glyph glyph-name="dieresis" unicode="&#xa8;" horiz-adv-x="333" 
 />
    <glyph glyph-name="copyright" unicode="&#xa9;" horiz-adv-x="737" 
 />
    <glyph glyph-name="ordfeminine" unicode="&#xaa;" horiz-adv-x="370" 
 />
    <glyph glyph-name="guillemotleft" unicode="&#xab;" 
 />
    <glyph glyph-name="logicalnot" unicode="&#xac;" horiz-adv-x="584" 
 />
    <glyph glyph-name="registered" unicode="&#xae;" horiz-adv-x="737" 
 />
    <glyph glyph-name="glyph137" unicode="&#xaf;" horiz-adv-x="552" 
 />
    <glyph glyph-name="degree" unicode="&#xb0;" horiz-adv-x="400" 
 />
    <glyph glyph-name="plusminus" unicode="&#xb1;" horiz-adv-x="549" 
 />
    <glyph glyph-name="twosuperior" unicode="&#xb2;" horiz-adv-x="333" 
 />
    <glyph glyph-name="threesuperior" unicode="&#xb3;" horiz-adv-x="333" 
 />
    <glyph glyph-name="acute" unicode="&#xb4;" horiz-adv-x="333" 
 />
    <glyph glyph-name="mu1" unicode="&#xb5;" horiz-adv-x="576" 
 />
    <glyph glyph-name="paragraph" unicode="&#xb6;" horiz-adv-x="537" 
 />
    <glyph glyph-name="glyph145" unicode="&#xb7;" horiz-adv-x="278" 
 />
    <glyph glyph-name="glyph145" unicode="&#x2219;" horiz-adv-x="278" 
 />
    <glyph glyph-name="cedilla" unicode="&#xb8;" horiz-adv-x="333" 
 />
    <glyph glyph-name="onesuperior" unicode="&#xb9;" horiz-adv-x="333" 
 />
    <glyph glyph-name="ordmasculine" unicode="&#xba;" horiz-adv-x="365" 
 />
    <glyph glyph-name="guillemotright" unicode="&#xbb;" 
 />
    <glyph glyph-name="onequarter" unicode="&#xbc;" horiz-adv-x="834" 
 />
    <glyph glyph-name="onehalf" unicode="&#xbd;" horiz-adv-x="834" 
 />
    <glyph glyph-name="threequarters" unicode="&#xbe;" horiz-adv-x="834" 
 />
    <glyph glyph-name="questiondown" unicode="&#xbf;" horiz-adv-x="611" 
 />
    <glyph glyph-name="Agrave" unicode="&#xc0;" horiz-adv-x="667" 
 />
    <glyph glyph-name="Aacute" unicode="&#xc1;" horiz-adv-x="667" 
 />
    <glyph glyph-name="Acircumflex" unicode="&#xc2;" horiz-adv-x="667" 
 />
    <glyph glyph-name="Atilde" unicode="&#xc3;" horiz-adv-x="667" 
 />
    <glyph glyph-name="Adieresis" unicode="&#xc4;" horiz-adv-x="667" 
 />
    <glyph glyph-name="Aring" unicode="&#xc5;" horiz-adv-x="667" 
 />
    <glyph glyph-name="AE" unicode="&#xc6;" horiz-adv-x="1000" 
 />
    <glyph glyph-name="Ccedilla" unicode="&#xc7;" horiz-adv-x="722" 
 />
    <glyph glyph-name="Egrave" unicode="&#xc8;" horiz-adv-x="667" 
 />
    <glyph glyph-name="Eacute" unicode="&#xc9;" horiz-adv-x="667" 
 />
    <glyph glyph-name="Ecircumflex" unicode="&#xca;" horiz-adv-x="667" 
 />
    <glyph glyph-name="Edieresis" unicode="&#xcb;" horiz-adv-x="667" 
 />
    <glyph glyph-name="Igrave" unicode="&#xcc;" horiz-adv-x="278" 
 />
    <glyph glyph-name="Iacute" unicode="&#xcd;" horiz-adv-x="278" 
 />
    <glyph glyph-name="Icircumflex" unicode="&#xce;" horiz-adv-x="278" 
 />
    <glyph glyph-name="Idieresis" unicode="&#xcf;" horiz-adv-x="278" 
 />
    <glyph glyph-name="Eth" unicode="&#xd0;" horiz-adv-x="722" 
 />
    <glyph glyph-name="Ntilde" unicode="&#xd1;" horiz-adv-x="722" 
 />
    <glyph glyph-name="Ograve" unicode="&#xd2;" horiz-adv-x="778" 
 />
    <glyph glyph-name="Oacute" unicode="&#xd3;" horiz-adv-x="778" 
 />
    <glyph glyph-name="Ocircumflex" unicode="&#xd4;" horiz-adv-x="778" 
 />
    <glyph glyph-name="Otilde" unicode="&#xd5;" horiz-adv-x="778" 
 />
    <glyph glyph-name="Odieresis" unicode="&#xd6;" horiz-adv-x="778" 
 />
    <glyph glyph-name="multiply" unicode="&#xd7;" horiz-adv-x="584" 
 />
    <glyph glyph-name="Oslash" unicode="&#xd8;" horiz-adv-x="778" 
 />
    <glyph glyph-name="Ugrave" unicode="&#xd9;" horiz-adv-x="722" 
 />
    <glyph glyph-name="Uacute" unicode="&#xda;" horiz-adv-x="722" 
 />
    <glyph glyph-name="Ucircumflex" unicode="&#xdb;" horiz-adv-x="722" 
 />
    <glyph glyph-name="Udieresis" unicode="&#xdc;" horiz-adv-x="722" 
 />
    <glyph glyph-name="Yacute" unicode="&#xdd;" horiz-adv-x="667" 
 />
    <glyph glyph-name="Thorn" unicode="&#xde;" horiz-adv-x="667" 
 />
    <glyph glyph-name="germandbls" unicode="&#xdf;" horiz-adv-x="611" 
 />
    <glyph glyph-name="agrave" unicode="&#xe0;" 
 />
    <glyph glyph-name="aacute" unicode="&#xe1;" 
 />
    <glyph glyph-name="acircumflex" unicode="&#xe2;" 
 />
    <glyph glyph-name="atilde" unicode="&#xe3;" 
 />
    <glyph glyph-name="adieresis" unicode="&#xe4;" 
 />
    <glyph glyph-name="aring" unicode="&#xe5;" 
 />
    <glyph glyph-name="ae" unicode="&#xe6;" horiz-adv-x="889" 
 />
    <glyph glyph-name="ccedilla" unicode="&#xe7;" horiz-adv-x="500" 
 />
    <glyph glyph-name="egrave" unicode="&#xe8;" 
 />
    <glyph glyph-name="eacute" unicode="&#xe9;" 
 />
    <glyph glyph-name="ecircumflex" unicode="&#xea;" 
 />
    <glyph glyph-name="edieresis" unicode="&#xeb;" 
 />
    <glyph glyph-name="igrave" unicode="&#xec;" horiz-adv-x="278" 
 />
    <glyph glyph-name="iacute" unicode="&#xed;" horiz-adv-x="278" 
 />
    <glyph glyph-name="icircumflex" unicode="&#xee;" horiz-adv-x="278" 
 />
    <glyph glyph-name="idieresis" unicode="&#xef;" horiz-adv-x="278" 
 />
    <glyph glyph-name="eth" unicode="&#xf0;" 
 />
    <glyph glyph-name="ntilde" unicode="&#xf1;" 
 />
    <glyph glyph-name="ograve" unicode="&#xf2;" 
 />
    <glyph glyph-name="oacute" unicode="&#xf3;" 
 />
    <glyph glyph-name="ocircumflex" unicode="&#xf4;" 
 />
    <glyph glyph-name="otilde" unicode="&#xf5;" 
 />
    <glyph glyph-name="odieresis" unicode="&#xf6;" 
 />
    <glyph glyph-name="divide" unicode="&#xf7;" horiz-adv-x="549" 
 />
    <glyph glyph-name="oslash" unicode="&#xf8;" horiz-adv-x="611" 
 />
    <glyph glyph-name="ugrave" unicode="&#xf9;" 
 />
    <glyph glyph-name="uacute" unicode="&#xfa;" 
 />
    <glyph glyph-name="ucircumflex" unicode="&#xfb;" 
 />
    <glyph glyph-name="udieresis" unicode="&#xfc;" 
 />
    <glyph glyph-name="yacute" unicode="&#xfd;" horiz-adv-x="500" 
 />
    <glyph glyph-name="thorn" unicode="&#xfe;" 
 />
    <glyph glyph-name="ydieresis" unicode="&#xff;" horiz-adv-x="500" 
 />
    <glyph glyph-name="notequal" unicode="&#x2260;" horiz-adv-x="549" 
 />
    <glyph glyph-name="infinity" unicode="&#x221e;" horiz-adv-x="713" 
 />
    <glyph glyph-name="lessequal" unicode="&#x2264;" horiz-adv-x="549" 
 />
    <glyph glyph-name="greaterequal" unicode="&#x2265;" horiz-adv-x="549" 
 />
    <glyph glyph-name="partialdiff" unicode="&#x2202;" horiz-adv-x="494" 
 />
    <glyph glyph-name="summation" unicode="&#x2211;" horiz-adv-x="713" 
 />
    <glyph glyph-name="product" unicode="&#x220f;" horiz-adv-x="823" 
 />
    <glyph glyph-name="pi1" horiz-adv-x="549" 
 />
    <glyph glyph-name="integral" unicode="&#x222b;" horiz-adv-x="274" 
 />
    <glyph glyph-name="Ohm" unicode="&#x2126;" horiz-adv-x="768" 
 />
    <glyph glyph-name="radical" unicode="&#x221a;" horiz-adv-x="549" 
 />
    <glyph glyph-name="approxequal" unicode="&#x2248;" horiz-adv-x="549" 
 />
    <glyph glyph-name="Delta" unicode="&#x2206;" horiz-adv-x="612" 
 />
    <glyph glyph-name="lozenge" unicode="&#x25ca;" horiz-adv-x="494" 
 />
    <glyph glyph-name="fraction" unicode="&#x2044;" horiz-adv-x="167" 
 />
    <glyph glyph-name="fraction" unicode="&#x2215;" horiz-adv-x="167" 
 />
    <glyph glyph-name="fi" unicode="&#xf001;" horiz-adv-x="500" 
 />
    <glyph glyph-name="fi" unicode="&#xfb01;" horiz-adv-x="500" 
 />
    <glyph glyph-name="fl" unicode="&#xf002;" horiz-adv-x="500" 
 />
    <glyph glyph-name="fl" unicode="&#xfb02;" horiz-adv-x="500" 
 />
    <glyph glyph-name="dotlessi" unicode="&#x131;" horiz-adv-x="278" 
 />
    <glyph glyph-name="macron" unicode="&#x2c9;" horiz-adv-x="333" 
 />
    <glyph glyph-name="breve" unicode="&#x2d8;" horiz-adv-x="333" 
 />
    <glyph glyph-name="dotaccent" unicode="&#x2d9;" horiz-adv-x="333" 
 />
    <glyph glyph-name="ring" unicode="&#x2da;" horiz-adv-x="333" 
 />
    <glyph glyph-name="hungarumlaut" unicode="&#x2dd;" horiz-adv-x="333" 
 />
    <glyph glyph-name="ogonek" unicode="&#x2db;" horiz-adv-x="333" 
 />
    <glyph glyph-name="caron" unicode="&#x2c7;" horiz-adv-x="333" 
 />
    <glyph glyph-name="Lslash" unicode="&#x141;" 
 />
    <glyph glyph-name="lslash" unicode="&#x142;" horiz-adv-x="222" 
 />
    <glyph glyph-name="minus" unicode="&#x2212;" horiz-adv-x="584" 
 />
    <glyph glyph-name="franc" unicode="&#x20a3;" 
 />
    <glyph glyph-name="Gbreve" unicode="&#x11e;" horiz-adv-x="778" 
 />
    <glyph glyph-name="gbreve" unicode="&#x11f;" 
 />
    <glyph glyph-name="Idotaccent" unicode="&#x130;" horiz-adv-x="278" 
 />
    <glyph glyph-name="Scedilla" unicode="&#x15e;" horiz-adv-x="667" 
 />
    <glyph glyph-name="scedilla" unicode="&#x15f;" horiz-adv-x="500" 
 />
    <glyph glyph-name="Cacute" unicode="&#x106;" horiz-adv-x="722" 
 />
    <glyph glyph-name="cacute" unicode="&#x107;" horiz-adv-x="500" 
 />
    <glyph glyph-name="Ccaron" unicode="&#x10c;" horiz-adv-x="722" 
 />
    <glyph glyph-name="ccaron" unicode="&#x10d;" horiz-adv-x="500" 
 />
    <glyph glyph-name="dmacron" unicode="&#x111;" 
 />
    <glyph glyph-name="periodcentered" horiz-adv-x="333" 
 />
    <glyph glyph-name="Abreve" unicode="&#x102;" horiz-adv-x="667" 
 />
    <glyph glyph-name="abreve" unicode="&#x103;" 
 />
    <glyph glyph-name="Aogonek" unicode="&#x104;" horiz-adv-x="667" 
 />
    <glyph glyph-name="aogonek" unicode="&#x105;" 
 />
    <glyph glyph-name="Dcaron" unicode="&#x10e;" horiz-adv-x="722" 
 />
    <glyph glyph-name="dcaron" unicode="&#x10f;" horiz-adv-x="615" 
 />
    <glyph glyph-name="Dslash" unicode="&#x110;" horiz-adv-x="722" 
 />
    <glyph glyph-name="Eogonek" unicode="&#x118;" horiz-adv-x="667" 
 />
    <glyph glyph-name="eogonek" unicode="&#x119;" 
 />
    <glyph glyph-name="Ecaron" unicode="&#x11a;" horiz-adv-x="667" 
 />
    <glyph glyph-name="ecaron" unicode="&#x11b;" 
 />
    <glyph glyph-name="Lacute" unicode="&#x139;" 
 />
    <glyph glyph-name="lacute" unicode="&#x13a;" horiz-adv-x="222" 
 />
    <glyph glyph-name="Lcaron" unicode="&#x13d;" 
 />
    <glyph glyph-name="lcaron" unicode="&#x13e;" horiz-adv-x="292" 
 />
    <glyph glyph-name="Ldot" unicode="&#x13f;" 
 />
    <glyph glyph-name="ldot" unicode="&#x140;" horiz-adv-x="334" 
 />
    <glyph glyph-name="Nacute" unicode="&#x143;" horiz-adv-x="722" 
 />
    <glyph glyph-name="nacute" unicode="&#x144;" 
 />
    <glyph glyph-name="Ncaron" unicode="&#x147;" horiz-adv-x="722" 
 />
    <glyph glyph-name="ncaron" unicode="&#x148;" 
 />
    <glyph glyph-name="Odblacute" unicode="&#x150;" horiz-adv-x="778" 
 />
    <glyph glyph-name="odblacute" unicode="&#x151;" 
 />
    <glyph glyph-name="Racute" unicode="&#x154;" horiz-adv-x="722" 
 />
    <glyph glyph-name="racute" unicode="&#x155;" horiz-adv-x="333" 
 />
    <glyph glyph-name="Rcaron" unicode="&#x158;" horiz-adv-x="722" 
 />
    <glyph glyph-name="rcaron" unicode="&#x159;" horiz-adv-x="333" 
 />
    <glyph glyph-name="Sacute" unicode="&#x15a;" horiz-adv-x="667" 
 />
    <glyph glyph-name="sacute" unicode="&#x15b;" horiz-adv-x="500" 
 />
    <glyph glyph-name="Tcedilla" unicode="&#x162;" horiz-adv-x="611" 
 />
    <glyph glyph-name="tcedilla" unicode="&#x163;" horiz-adv-x="278" 
 />
    <glyph glyph-name="Tcaron" unicode="&#x164;" horiz-adv-x="611" 
 />
    <glyph glyph-name="tcaron" unicode="&#x165;" horiz-adv-x="375" 
 />
    <glyph glyph-name="Uring" unicode="&#x16e;" horiz-adv-x="722" 
 />
    <glyph glyph-name="uring" unicode="&#x16f;" 
 />
    <glyph glyph-name="Udblacute" unicode="&#x170;" horiz-adv-x="722" 
 />
    <glyph glyph-name="udblacute" unicode="&#x171;" 
 />
    <glyph glyph-name="Zacute" unicode="&#x179;" horiz-adv-x="611" 
 />
    <glyph glyph-name="zacute" unicode="&#x17a;" horiz-adv-x="500" 
 />
    <glyph glyph-name="Zdot" unicode="&#x17b;" horiz-adv-x="611" 
 />
    <glyph glyph-name="zdot" unicode="&#x17c;" horiz-adv-x="500" 
 />
    <glyph glyph-name="Gamma" unicode="&#x393;" horiz-adv-x="551" 
 />
    <glyph glyph-name="Theta" unicode="&#x398;" horiz-adv-x="778" 
 />
    <glyph glyph-name="Phi" unicode="&#x3a6;" horiz-adv-x="798" 
 />
    <glyph glyph-name="alpha" unicode="&#x3b1;" horiz-adv-x="578" 
 />
    <glyph glyph-name="delta" unicode="&#x3b4;" horiz-adv-x="557" 
 />
    <glyph glyph-name="epsilon" unicode="&#x3b5;" horiz-adv-x="446" 
 />
    <glyph glyph-name="sigma" unicode="&#x3c3;" horiz-adv-x="617" 
 />
    <glyph glyph-name="tau" unicode="&#x3c4;" horiz-adv-x="395" 
 />
    <glyph glyph-name="phi" unicode="&#x3c6;" horiz-adv-x="648" 
 />
    <glyph glyph-name="underscoredbl" unicode="&#x2017;" horiz-adv-x="552" 
 />
    <glyph glyph-name="exclamdbl" unicode="&#x203c;" horiz-adv-x="500" 
 />
    <glyph glyph-name="nsuperior" unicode="&#x207f;" horiz-adv-x="365" 
 />
    <glyph glyph-name="peseta" unicode="&#x20a7;" horiz-adv-x="1094" 
 />
    <glyph glyph-name="arrowleft" unicode="&#x2190;" horiz-adv-x="1000" 
 />
    <glyph glyph-name="arrowup" unicode="&#x2191;" horiz-adv-x="500" 
 />
    <glyph glyph-name="arrowright" unicode="&#x2192;" horiz-adv-x="1000" 
 />
    <glyph glyph-name="arrowdown" unicode="&#x2193;" horiz-adv-x="500" 
 />
    <glyph glyph-name="arrowboth" unicode="&#x2194;" horiz-adv-x="1000" 
 />
    <glyph glyph-name="arrowupdn" unicode="&#x2195;" horiz-adv-x="500" 
 />
    <glyph glyph-name="arrowupdnbse" unicode="&#x21a8;" horiz-adv-x="500" 
 />
    <glyph glyph-name="orthogonal" unicode="&#x221f;" horiz-adv-x="979" 
 />
    <glyph glyph-name="intersection" unicode="&#x2229;" horiz-adv-x="719" 
 />
    <glyph glyph-name="equivalence" unicode="&#x2261;" horiz-adv-x="583" 
 />
    <glyph glyph-name="house" unicode="&#x2302;" horiz-adv-x="604" 
 />
    <glyph glyph-name="revlogicalnot" unicode="&#x2310;" horiz-adv-x="584" 
 />
    <glyph glyph-name="integraltp" unicode="&#x2320;" horiz-adv-x="604" 
 />
    <glyph glyph-name="integralbt" unicode="&#x2321;" horiz-adv-x="604" 
 />
    <glyph glyph-name="SF100000" unicode="&#x2500;" horiz-adv-x="708" 
 />
    <glyph glyph-name="SF110000" unicode="&#x2502;" horiz-adv-x="625" 
 />
    <glyph glyph-name="SF010000" unicode="&#x250c;" horiz-adv-x="708" 
 />
    <glyph glyph-name="SF030000" unicode="&#x2510;" horiz-adv-x="708" 
 />
    <glyph glyph-name="SF020000" unicode="&#x2514;" horiz-adv-x="708" 
 />
    <glyph glyph-name="SF040000" unicode="&#x2518;" horiz-adv-x="708" 
 />
    <glyph glyph-name="SF080000" unicode="&#x251c;" horiz-adv-x="708" 
 />
    <glyph glyph-name="SF090000" unicode="&#x2524;" horiz-adv-x="708" 
 />
    <glyph glyph-name="SF060000" unicode="&#x252c;" horiz-adv-x="708" 
 />
    <glyph glyph-name="SF070000" unicode="&#x2534;" horiz-adv-x="708" 
 />
    <glyph glyph-name="SF050000" unicode="&#x253c;" horiz-adv-x="708" 
 />
    <glyph glyph-name="SF430000" unicode="&#x2550;" horiz-adv-x="708" 
 />
    <glyph glyph-name="SF240000" unicode="&#x2551;" horiz-adv-x="708" 
 />
    <glyph glyph-name="SF510000" unicode="&#x2552;" horiz-adv-x="708" 
 />
    <glyph glyph-name="SF520000" unicode="&#x2553;" horiz-adv-x="708" 
 />
    <glyph glyph-name="SF390000" unicode="&#x2554;" horiz-adv-x="708" 
 />
    <glyph glyph-name="SF220000" unicode="&#x2555;" horiz-adv-x="708" 
 />
    <glyph glyph-name="SF210000" unicode="&#x2556;" horiz-adv-x="708" 
 />
    <glyph glyph-name="SF250000" unicode="&#x2557;" horiz-adv-x="708" 
 />
    <glyph glyph-name="SF500000" unicode="&#x2558;" horiz-adv-x="708" 
 />
    <glyph glyph-name="SF490000" unicode="&#x2559;" horiz-adv-x="708" 
 />
    <glyph glyph-name="SF380000" unicode="&#x255a;" horiz-adv-x="708" 
 />
    <glyph glyph-name="SF280000" unicode="&#x255b;" horiz-adv-x="708" 
 />
    <glyph glyph-name="SF270000" unicode="&#x255c;" horiz-adv-x="708" 
 />
    <glyph glyph-name="SF260000" unicode="&#x255d;" horiz-adv-x="708" 
 />
    <glyph glyph-name="SF360000" unicode="&#x255e;" horiz-adv-x="708" 
 />
    <glyph glyph-name="SF370000" unicode="&#x255f;" horiz-adv-x="708" 
 />
    <glyph glyph-name="SF420000" unicode="&#x2560;" horiz-adv-x="708" 
 />
    <glyph glyph-name="SF190000" unicode="&#x2561;" horiz-adv-x="708" 
 />
    <glyph glyph-name="SF200000" unicode="&#x2562;" horiz-adv-x="708" 
 />
    <glyph glyph-name="SF230000" unicode="&#x2563;" horiz-adv-x="708" 
 />
    <glyph glyph-name="SF470000" unicode="&#x2564;" horiz-adv-x="708" 
 />
    <glyph glyph-name="SF480000" unicode="&#x2565;" horiz-adv-x="708" 
 />
    <glyph glyph-name="SF410000" unicode="&#x2566;" horiz-adv-x="708" 
 />
    <glyph glyph-name="SF450000" unicode="&#x2567;" horiz-adv-x="708" 
 />
    <glyph glyph-name="SF460000" unicode="&#x2568;" horiz-adv-x="708" 
 />
    <glyph glyph-name="SF400000" unicode="&#x2569;" horiz-adv-x="708" 
 />
    <glyph glyph-name="SF540000" unicode="&#x256a;" horiz-adv-x="708" 
 />
    <glyph glyph-name="SF530000" unicode="&#x256b;" horiz-adv-x="708" 
 />
    <glyph glyph-name="SF440000" unicode="&#x256c;" horiz-adv-x="708" 
 />
    <glyph glyph-name="upblock" unicode="&#x2580;" horiz-adv-x="708" 
 />
    <glyph glyph-name="dnblock" unicode="&#x2584;" horiz-adv-x="708" 
 />
    <glyph glyph-name="block" unicode="&#x2588;" horiz-adv-x="708" 
 />
    <glyph glyph-name="lfblock" unicode="&#x258c;" horiz-adv-x="708" 
 />
    <glyph glyph-name="rtblock" unicode="&#x2590;" horiz-adv-x="708" 
 />
    <glyph glyph-name="ltshade" unicode="&#x2591;" horiz-adv-x="708" 
 />
    <glyph glyph-name="shade" unicode="&#x2592;" horiz-adv-x="708" 
 />
    <glyph glyph-name="dkshade" unicode="&#x2593;" horiz-adv-x="729" 
 />
    <glyph glyph-name="filledbox" unicode="&#x25a0;" horiz-adv-x="604" 
 />
    <glyph glyph-name="filledrect" unicode="&#x25ac;" horiz-adv-x="1000" 
 />
    <glyph glyph-name="triagup" unicode="&#x25b2;" horiz-adv-x="990" 
 />
    <glyph glyph-name="triagrt" unicode="&#x25ba;" horiz-adv-x="990" 
 />
    <glyph glyph-name="triagdn" unicode="&#x25bc;" horiz-adv-x="990" 
 />
    <glyph glyph-name="triaglf" unicode="&#x25c4;" horiz-adv-x="990" 
 />
    <glyph glyph-name="circle" unicode="&#x25cb;" horiz-adv-x="604" 
 />
    <glyph glyph-name="invbullet" unicode="&#x25d8;" horiz-adv-x="604" 
 />
    <glyph glyph-name="invcircle" unicode="&#x25d9;" horiz-adv-x="604" 
 />
    <glyph glyph-name="smileface" unicode="&#x263a;" horiz-adv-x="1021" 
 />
    <glyph glyph-name="invsmileface" unicode="&#x263b;" horiz-adv-x="1052" 
 />
    <glyph glyph-name="sun" unicode="&#x263c;" horiz-adv-x="917" 
 />
    <glyph glyph-name="female" unicode="&#x2640;" horiz-adv-x="750" 
 />
    <glyph glyph-name="male" unicode="&#x2642;" horiz-adv-x="750" 
 />
    <glyph glyph-name="spade" unicode="&#x2660;" horiz-adv-x="531" 
 />
    <glyph glyph-name="club" unicode="&#x2663;" horiz-adv-x="656" 
 />
    <glyph glyph-name="heart" unicode="&#x2665;" horiz-adv-x="594" 
 />
    <glyph glyph-name="diamond" unicode="&#x2666;" horiz-adv-x="510" 
 />
    <glyph glyph-name="musicalnote" unicode="&#x266a;" horiz-adv-x="500" 
 />
    <glyph glyph-name="musicalnotedbl" unicode="&#x266b;" horiz-adv-x="750" 
 />
    <glyph glyph-name="IJ" unicode="&#x132;" horiz-adv-x="735" 
 />
    <glyph glyph-name="ij" unicode="&#x133;" horiz-adv-x="444" 
 />
    <glyph glyph-name="napostrophe" unicode="&#x149;" horiz-adv-x="604" 
 />
    <glyph glyph-name="minute" unicode="&#x2032;" horiz-adv-x="187" 
 />
    <glyph glyph-name="second" unicode="&#x2033;" horiz-adv-x="354" 
 />
    <glyph glyph-name="afii61248" unicode="&#x2105;" horiz-adv-x="885" 
 />
    <glyph glyph-name="afii61289" unicode="&#x2113;" horiz-adv-x="323" 
 />
    <glyph glyph-name="H22073" unicode="&#x25a1;" horiz-adv-x="604" 
 />
    <glyph glyph-name="H18543" unicode="&#x25aa;" horiz-adv-x="354" 
 />
    <glyph glyph-name="H18551" unicode="&#x25ab;" horiz-adv-x="354" 
 />
    <glyph glyph-name="H18533" unicode="&#x25cf;" horiz-adv-x="604" 
 />
    <glyph glyph-name="openbullet" unicode="&#x25e6;" horiz-adv-x="354" 
 />
    <glyph glyph-name="Amacron" unicode="&#x100;" horiz-adv-x="667" 
 />
    <glyph glyph-name="amacron" unicode="&#x101;" 
 />
    <glyph glyph-name="Ccircumflex" unicode="&#x108;" horiz-adv-x="722" 
 />
    <glyph glyph-name="ccircumflex" unicode="&#x109;" horiz-adv-x="500" 
 />
    <glyph glyph-name="Cdot" unicode="&#x10a;" horiz-adv-x="722" 
 />
    <glyph glyph-name="cdot" unicode="&#x10b;" horiz-adv-x="500" 
 />
    <glyph glyph-name="Emacron" unicode="&#x112;" horiz-adv-x="667" 
 />
    <glyph glyph-name="emacron" unicode="&#x113;" 
 />
    <glyph glyph-name="Ebreve" unicode="&#x114;" horiz-adv-x="667" 
 />
    <glyph glyph-name="ebreve" unicode="&#x115;" 
 />
    <glyph glyph-name="Edot" unicode="&#x116;" horiz-adv-x="667" 
 />
    <glyph glyph-name="edot" unicode="&#x117;" 
 />
    <glyph glyph-name="Gcircumflex" unicode="&#x11c;" horiz-adv-x="778" 
 />
    <glyph glyph-name="gcircumflex" unicode="&#x11d;" 
 />
    <glyph glyph-name="Gdot" unicode="&#x120;" horiz-adv-x="778" 
 />
    <glyph glyph-name="gdot" unicode="&#x121;" 
 />
    <glyph glyph-name="Gcedilla" unicode="&#x122;" horiz-adv-x="778" 
 />
    <glyph glyph-name="gcedilla" unicode="&#x123;" 
 />
    <glyph glyph-name="Hcircumflex" unicode="&#x124;" horiz-adv-x="722" 
 />
    <glyph glyph-name="hcircumflex" unicode="&#x125;" 
 />
    <glyph glyph-name="Hbar" unicode="&#x126;" horiz-adv-x="722" 
 />
    <glyph glyph-name="hbar" unicode="&#x127;" 
 />
    <glyph glyph-name="Itilde" unicode="&#x128;" horiz-adv-x="278" 
 />
    <glyph glyph-name="itilde" unicode="&#x129;" horiz-adv-x="278" 
 />
    <glyph glyph-name="Imacron" unicode="&#x12a;" horiz-adv-x="278" 
 />
    <glyph glyph-name="imacron" unicode="&#x12b;" horiz-adv-x="278" 
 />
    <glyph glyph-name="Ibreve" unicode="&#x12c;" horiz-adv-x="278" 
 />
    <glyph glyph-name="ibreve" unicode="&#x12d;" horiz-adv-x="278" 
 />
    <glyph glyph-name="Iogonek" unicode="&#x12e;" horiz-adv-x="278" 
 />
    <glyph glyph-name="iogonek" unicode="&#x12f;" horiz-adv-x="222" 
 />
    <glyph glyph-name="Jcircumflex" unicode="&#x134;" horiz-adv-x="500" 
 />
    <glyph glyph-name="jcircumflex" unicode="&#x135;" horiz-adv-x="222" 
 />
    <glyph glyph-name="Kcedilla" unicode="&#x136;" horiz-adv-x="667" 
 />
    <glyph glyph-name="kcedilla" unicode="&#x137;" horiz-adv-x="500" 
 />
    <glyph glyph-name="kgreenlandic" unicode="&#x138;" horiz-adv-x="500" 
 />
    <glyph glyph-name="Lcedilla" unicode="&#x13b;" 
 />
    <glyph glyph-name="lcedilla" unicode="&#x13c;" horiz-adv-x="222" 
 />
    <glyph glyph-name="Ncedilla" unicode="&#x145;" horiz-adv-x="722" 
 />
    <glyph glyph-name="ncedilla" unicode="&#x146;" 
 />
    <glyph glyph-name="Eng" unicode="&#x14a;" horiz-adv-x="723" 
 />
    <glyph glyph-name="eng" unicode="&#x14b;" 
 />
    <glyph glyph-name="Omacron" unicode="&#x14c;" horiz-adv-x="778" 
 />
    <glyph glyph-name="omacron" unicode="&#x14d;" 
 />
    <glyph glyph-name="Obreve" unicode="&#x14e;" horiz-adv-x="778" 
 />
    <glyph glyph-name="obreve" unicode="&#x14f;" 
 />
    <glyph glyph-name="Rcedilla" unicode="&#x156;" horiz-adv-x="722" 
 />
    <glyph glyph-name="rcedilla" unicode="&#x157;" horiz-adv-x="333" 
 />
    <glyph glyph-name="Scircumflex" unicode="&#x15c;" horiz-adv-x="667" 
 />
    <glyph glyph-name="scircumflex" unicode="&#x15d;" horiz-adv-x="500" 
 />
    <glyph glyph-name="Tbar" unicode="&#x166;" horiz-adv-x="611" 
 />
    <glyph glyph-name="tbar" unicode="&#x167;" horiz-adv-x="278" 
 />
    <glyph glyph-name="Utilde" unicode="&#x168;" horiz-adv-x="722" 
 />
    <glyph glyph-name="utilde" unicode="&#x169;" 
 />
    <glyph glyph-name="Umacron" unicode="&#x16a;" horiz-adv-x="722" 
 />
    <glyph glyph-name="umacron" unicode="&#x16b;" 
 />
    <glyph glyph-name="Ubreve" unicode="&#x16c;" horiz-adv-x="722" 
 />
    <glyph glyph-name="ubreve" unicode="&#x16d;" 
 />
    <glyph glyph-name="Uogonek" unicode="&#x172;" horiz-adv-x="722" 
 />
    <glyph glyph-name="uogonek" unicode="&#x173;" 
 />
    <glyph glyph-name="Wcircumflex" unicode="&#x174;" horiz-adv-x="944" 
 />
    <glyph glyph-name="wcircumflex" unicode="&#x175;" horiz-adv-x="722" 
 />
    <glyph glyph-name="Ycircumflex" unicode="&#x176;" horiz-adv-x="667" 
 />
    <glyph glyph-name="ycircumflex" unicode="&#x177;" horiz-adv-x="500" 
 />
    <glyph glyph-name="longs" unicode="&#x17f;" horiz-adv-x="222" 
 />
    <glyph glyph-name="Aringacute" unicode="&#x1fa;" horiz-adv-x="667" 
 />
    <glyph glyph-name="aringacute" unicode="&#x1fb;" 
 />
    <glyph glyph-name="AEacute" unicode="&#x1fc;" horiz-adv-x="1000" 
 />
    <glyph glyph-name="aeacute" unicode="&#x1fd;" horiz-adv-x="889" 
 />
    <glyph glyph-name="Oslashacute" unicode="&#x1fe;" horiz-adv-x="778" 
 />
    <glyph glyph-name="oslashacute" unicode="&#x1ff;" horiz-adv-x="611" 
 />
    <glyph glyph-name="anoteleia" unicode="&#x387;" horiz-adv-x="278" 
 />
    <glyph glyph-name="Wgrave" unicode="&#x1e80;" horiz-adv-x="944" 
 />
    <glyph glyph-name="wgrave" unicode="&#x1e81;" horiz-adv-x="722" 
 />
    <glyph glyph-name="Wacute" unicode="&#x1e82;" horiz-adv-x="944" 
 />
    <glyph glyph-name="wacute" unicode="&#x1e83;" horiz-adv-x="722" 
 />
    <glyph glyph-name="Wdieresis" unicode="&#x1e84;" horiz-adv-x="944" 
 />
    <glyph glyph-name="wdieresis" unicode="&#x1e85;" horiz-adv-x="722" 
 />
    <glyph glyph-name="Ygrave" unicode="&#x1ef2;" horiz-adv-x="667" 
 />
    <glyph glyph-name="ygrave" unicode="&#x1ef3;" horiz-adv-x="500" 
 />
    <glyph glyph-name="quotereversed" unicode="&#x201b;" horiz-adv-x="222" 
 />
    <glyph glyph-name="radicalex" unicode="&#x203e;" horiz-adv-x="333" 
 />
    <glyph glyph-name="afii08941" unicode="&#x20a4;" 
 />
    <glyph glyph-name="estimated" unicode="&#x212e;" horiz-adv-x="600" 
 />
    <glyph glyph-name="oneeighth" unicode="&#x215b;" horiz-adv-x="834" 
 />
    <glyph glyph-name="threeeighths" unicode="&#x215c;" horiz-adv-x="834" 
 />
    <glyph glyph-name="fiveeighths" unicode="&#x215d;" horiz-adv-x="834" 
 />
    <glyph glyph-name="seveneighths" unicode="&#x215e;" horiz-adv-x="834" 
 />
    <glyph glyph-name="commaaccent" unicode="&#xf004;" horiz-adv-x="333" 
 />
    <glyph glyph-name="undercommaaccent" unicode="&#xf005;" horiz-adv-x="333" 
 />
    <glyph glyph-name="tonos" unicode="&#x384;" horiz-adv-x="333" 
 />
    <glyph glyph-name="dieresistonos" unicode="&#x385;" horiz-adv-x="333" 
 />
    <glyph glyph-name="Alphatonos" unicode="&#x386;" horiz-adv-x="667" 
 />
    <glyph glyph-name="Epsilontonos" unicode="&#x388;" horiz-adv-x="784" 
 />
    <glyph glyph-name="Etatonos" unicode="&#x389;" horiz-adv-x="838" 
 />
    <glyph glyph-name="Iotatonos" unicode="&#x38a;" horiz-adv-x="384" 
 />
    <glyph glyph-name="Omicrontonos" unicode="&#x38c;" horiz-adv-x="774" 
 />
    <glyph glyph-name="Upsilontonos" unicode="&#x38e;" horiz-adv-x="855" 
 />
    <glyph glyph-name="Omegatonos" unicode="&#x38f;" horiz-adv-x="752" 
 />
    <glyph glyph-name="iotadieresistonos" unicode="&#x390;" horiz-adv-x="222" 
 />
    <glyph glyph-name="Alpha" unicode="&#x391;" horiz-adv-x="667" 
 />
    <glyph glyph-name="Beta" unicode="&#x392;" horiz-adv-x="667" 
 />
    <glyph glyph-name="Delta" unicode="&#x394;" horiz-adv-x="668" 
 />
    <glyph glyph-name="Epsilon" unicode="&#x395;" horiz-adv-x="667" 
 />
    <glyph glyph-name="Zeta" unicode="&#x396;" horiz-adv-x="611" 
 />
    <glyph glyph-name="Eta" unicode="&#x397;" horiz-adv-x="722" 
 />
    <glyph glyph-name="Iota" unicode="&#x399;" horiz-adv-x="278" 
 />
    <glyph glyph-name="Kappa" unicode="&#x39a;" horiz-adv-x="667" 
 />
    <glyph glyph-name="Lambda" unicode="&#x39b;" horiz-adv-x="668" 
 />
    <glyph glyph-name="Mu" unicode="&#x39c;" horiz-adv-x="833" 
 />
    <glyph glyph-name="Nu" unicode="&#x39d;" horiz-adv-x="722" 
 />
    <glyph glyph-name="Xi" unicode="&#x39e;" horiz-adv-x="650" 
 />
    <glyph glyph-name="Omicron" unicode="&#x39f;" horiz-adv-x="778" 
 />
    <glyph glyph-name="Pi" unicode="&#x3a0;" horiz-adv-x="722" 
 />
    <glyph glyph-name="Rho" unicode="&#x3a1;" horiz-adv-x="667" 
 />
    <glyph glyph-name="Sigma" unicode="&#x3a3;" horiz-adv-x="618" 
 />
    <glyph glyph-name="Tau" unicode="&#x3a4;" horiz-adv-x="611" 
 />
    <glyph glyph-name="Upsilon" unicode="&#x3a5;" horiz-adv-x="667" 
 />
    <glyph glyph-name="Chi" unicode="&#x3a7;" horiz-adv-x="667" 
 />
    <glyph glyph-name="Psi" unicode="&#x3a8;" horiz-adv-x="835" 
 />
    <glyph glyph-name="Omega" unicode="&#x3a9;" horiz-adv-x="748" 
 />
    <glyph glyph-name="Iotadieresis" unicode="&#x3aa;" horiz-adv-x="278" 
 />
    <glyph glyph-name="Upsilondieresis" unicode="&#x3ab;" horiz-adv-x="667" 
 />
    <glyph glyph-name="alphatonos" unicode="&#x3ac;" horiz-adv-x="578" 
 />
    <glyph glyph-name="epsilontonos" unicode="&#x3ad;" horiz-adv-x="446" 
 />
    <glyph glyph-name="etatonos" unicode="&#x3ae;" 
 />
    <glyph glyph-name="iotatonos" unicode="&#x3af;" horiz-adv-x="222" 
 />
    <glyph glyph-name="upsilondieresistonos" unicode="&#x3b0;" horiz-adv-x="547" 
 />
    <glyph glyph-name="beta" unicode="&#x3b2;" horiz-adv-x="575" 
 />
    <glyph glyph-name="gamma" unicode="&#x3b3;" horiz-adv-x="500" 
 />
    <glyph glyph-name="zeta" unicode="&#x3b6;" horiz-adv-x="441" 
 />
    <glyph glyph-name="eta" unicode="&#x3b7;" 
 />
    <glyph glyph-name="theta" unicode="&#x3b8;" 
 />
    <glyph glyph-name="iota" unicode="&#x3b9;" horiz-adv-x="222" 
 />
    <glyph glyph-name="kappa" unicode="&#x3ba;" horiz-adv-x="500" 
 />
    <glyph glyph-name="lambda" unicode="&#x3bb;" horiz-adv-x="500" 
 />
    <glyph glyph-name="mu" unicode="&#x3bc;" horiz-adv-x="576" 
 />
    <glyph glyph-name="nu" unicode="&#x3bd;" horiz-adv-x="500" 
 />
    <glyph glyph-name="xi" unicode="&#x3be;" horiz-adv-x="448" 
 />
    <glyph glyph-name="omicron" unicode="&#x3bf;" 
 />
    <glyph glyph-name="rho" unicode="&#x3c1;" horiz-adv-x="569" 
 />
    <glyph glyph-name="sigma1" unicode="&#x3c2;" horiz-adv-x="482" 
 />
    <glyph glyph-name="upsilon" unicode="&#x3c5;" horiz-adv-x="547" 
 />
    <glyph glyph-name="chi" unicode="&#x3c7;" horiz-adv-x="525" 
 />
    <glyph glyph-name="psi" unicode="&#x3c8;" horiz-adv-x="713" 
 />
    <glyph glyph-name="omega" unicode="&#x3c9;" horiz-adv-x="781" 
 />
    <glyph glyph-name="iotadieresis" unicode="&#x3ca;" horiz-adv-x="222" 
 />
    <glyph glyph-name="upsilondieresis" unicode="&#x3cb;" horiz-adv-x="547" 
 />
    <glyph glyph-name="omicrontonos" unicode="&#x3cc;" 
 />
    <glyph glyph-name="upsilontonos" unicode="&#x3cd;" horiz-adv-x="547" 
 />
    <glyph glyph-name="omegatonos" unicode="&#x3ce;" horiz-adv-x="781" 
 />
    <glyph glyph-name="afii10023" unicode="&#x401;" horiz-adv-x="667" 
 />
    <glyph glyph-name="afii10051" unicode="&#x402;" horiz-adv-x="865" 
 />
    <glyph glyph-name="afii10052" unicode="&#x403;" horiz-adv-x="542" 
 />
    <glyph glyph-name="afii10053" unicode="&#x404;" horiz-adv-x="719" 
 />
    <glyph glyph-name="afii10054" unicode="&#x405;" horiz-adv-x="667" 
 />
    <glyph glyph-name="afii10055" unicode="&#x406;" horiz-adv-x="278" 
 />
    <glyph glyph-name="afii10056" unicode="&#x407;" horiz-adv-x="278" 
 />
    <glyph glyph-name="afii10057" unicode="&#x408;" horiz-adv-x="500" 
 />
    <glyph glyph-name="afii10058" unicode="&#x409;" horiz-adv-x="1057" 
 />
    <glyph glyph-name="afii10059" unicode="&#x40a;" horiz-adv-x="1010" 
 />
    <glyph glyph-name="afii10060" unicode="&#x40b;" horiz-adv-x="854" 
 />
    <glyph glyph-name="afii10061" unicode="&#x40c;" horiz-adv-x="583" 
 />
    <glyph glyph-name="afii10062" unicode="&#x40e;" horiz-adv-x="635" 
 />
    <glyph glyph-name="afii10145" unicode="&#x40f;" horiz-adv-x="719" 
 />
    <glyph glyph-name="afii10017" unicode="&#x410;" horiz-adv-x="667" 
 />
    <glyph glyph-name="afii10018" unicode="&#x411;" horiz-adv-x="656" 
 />
    <glyph glyph-name="afii10019" unicode="&#x412;" horiz-adv-x="667" 
 />
    <glyph glyph-name="afii10020" unicode="&#x413;" horiz-adv-x="542" 
 />
    <glyph glyph-name="afii10021" unicode="&#x414;" horiz-adv-x="677" 
 />
    <glyph glyph-name="afii10022" unicode="&#x415;" horiz-adv-x="667" 
 />
    <glyph glyph-name="afii10024" unicode="&#x416;" horiz-adv-x="923" 
 />
    <glyph glyph-name="afii10025" unicode="&#x417;" horiz-adv-x="604" 
 />
    <glyph glyph-name="afii10026" unicode="&#x418;" horiz-adv-x="719" 
 />
    <glyph glyph-name="afii10027" unicode="&#x419;" horiz-adv-x="719" 
 />
    <glyph glyph-name="afii10028" unicode="&#x41a;" horiz-adv-x="583" 
 />
    <glyph glyph-name="afii10029" unicode="&#x41b;" horiz-adv-x="656" 
 />
    <glyph glyph-name="afii10030" unicode="&#x41c;" horiz-adv-x="833" 
 />
    <glyph glyph-name="afii10031" unicode="&#x41d;" horiz-adv-x="722" 
 />
    <glyph glyph-name="afii10032" unicode="&#x41e;" horiz-adv-x="778" 
 />
    <glyph glyph-name="afii10033" unicode="&#x41f;" horiz-adv-x="719" 
 />
    <glyph glyph-name="afii10034" unicode="&#x420;" horiz-adv-x="667" 
 />
    <glyph glyph-name="afii10035" unicode="&#x421;" horiz-adv-x="722" 
 />
    <glyph glyph-name="afii10036" unicode="&#x422;" horiz-adv-x="611" 
 />
    <glyph glyph-name="afii10037" unicode="&#x423;" horiz-adv-x="635" 
 />
    <glyph glyph-name="afii10038" unicode="&#x424;" horiz-adv-x="760" 
 />
    <glyph glyph-name="afii10039" unicode="&#x425;" horiz-adv-x="667" 
 />
    <glyph glyph-name="afii10040" unicode="&#x426;" horiz-adv-x="740" 
 />
    <glyph glyph-name="afii10041" unicode="&#x427;" horiz-adv-x="667" 
 />
    <glyph glyph-name="afii10042" unicode="&#x428;" horiz-adv-x="917" 
 />
    <glyph glyph-name="afii10043" unicode="&#x429;" horiz-adv-x="937" 
 />
    <glyph glyph-name="afii10044" unicode="&#x42a;" horiz-adv-x="792" 
 />
    <glyph glyph-name="afii10045" unicode="&#x42b;" horiz-adv-x="885" 
 />
    <glyph glyph-name="afii10046" unicode="&#x42c;" horiz-adv-x="656" 
 />
    <glyph glyph-name="afii10047" unicode="&#x42d;" horiz-adv-x="719" 
 />
    <glyph glyph-name="afii10048" unicode="&#x42e;" horiz-adv-x="1010" 
 />
    <glyph glyph-name="afii10049" unicode="&#x42f;" horiz-adv-x="722" 
 />
    <glyph glyph-name="afii10065" unicode="&#x430;" 
 />
    <glyph glyph-name="afii10066" unicode="&#x431;" horiz-adv-x="573" 
 />
    <glyph glyph-name="afii10067" unicode="&#x432;" horiz-adv-x="531" 
 />
    <glyph glyph-name="afii10068" unicode="&#x433;" horiz-adv-x="365" 
 />
    <glyph glyph-name="afii10069" unicode="&#x434;" horiz-adv-x="583" 
 />
    <glyph glyph-name="afii10070" unicode="&#x435;" 
 />
    <glyph glyph-name="afii10072" unicode="&#x436;" horiz-adv-x="669" 
 />
    <glyph glyph-name="afii10073" unicode="&#x437;" horiz-adv-x="458" 
 />
    <glyph glyph-name="afii10074" unicode="&#x438;" horiz-adv-x="559" 
 />
    <glyph glyph-name="afii10075" unicode="&#x439;" horiz-adv-x="559" 
 />
    <glyph glyph-name="afii10076" unicode="&#x43a;" horiz-adv-x="437" 
 />
    <glyph glyph-name="afii10077" unicode="&#x43b;" horiz-adv-x="583" 
 />
    <glyph glyph-name="afii10078" unicode="&#x43c;" horiz-adv-x="687" 
 />
    <glyph glyph-name="afii10079" unicode="&#x43d;" horiz-adv-x="552" 
 />
    <glyph glyph-name="afii10080" unicode="&#x43e;" 
 />
    <glyph glyph-name="afii10081" unicode="&#x43f;" horiz-adv-x="542" 
 />
    <glyph glyph-name="afii10082" unicode="&#x440;" 
 />
    <glyph glyph-name="afii10083" unicode="&#x441;" horiz-adv-x="500" 
 />
    <glyph glyph-name="afii10084" unicode="&#x442;" horiz-adv-x="458" 
 />
    <glyph glyph-name="afii10085" unicode="&#x443;" horiz-adv-x="500" 
 />
    <glyph glyph-name="afii10086" unicode="&#x444;" horiz-adv-x="823" 
 />
    <glyph glyph-name="afii10087" unicode="&#x445;" horiz-adv-x="500" 
 />
    <glyph glyph-name="afii10088" unicode="&#x446;" horiz-adv-x="573" 
 />
    <glyph glyph-name="afii10089" unicode="&#x447;" horiz-adv-x="521" 
 />
    <glyph glyph-name="afii10090" unicode="&#x448;" horiz-adv-x="802" 
 />
    <glyph glyph-name="afii10091" unicode="&#x449;" horiz-adv-x="823" 
 />
    <glyph glyph-name="afii10092" unicode="&#x44a;" horiz-adv-x="625" 
 />
    <glyph glyph-name="afii10093" unicode="&#x44b;" horiz-adv-x="719" 
 />
    <glyph glyph-name="afii10094" unicode="&#x44c;" horiz-adv-x="521" 
 />
    <glyph glyph-name="afii10095" unicode="&#x44d;" horiz-adv-x="510" 
 />
    <glyph glyph-name="afii10096" unicode="&#x44e;" horiz-adv-x="750" 
 />
    <glyph glyph-name="afii10097" unicode="&#x44f;" horiz-adv-x="542" 
 />
    <glyph glyph-name="afii10071" unicode="&#x451;" 
 />
    <glyph glyph-name="afii10099" unicode="&#x452;" 
 />
    <glyph glyph-name="afii10100" unicode="&#x453;" horiz-adv-x="365" 
 />
    <glyph glyph-name="afii10101" unicode="&#x454;" horiz-adv-x="510" 
 />
    <glyph glyph-name="afii10102" unicode="&#x455;" horiz-adv-x="500" 
 />
    <glyph glyph-name="afii10103" unicode="&#x456;" horiz-adv-x="222" 
 />
    <glyph glyph-name="afii10104" unicode="&#x457;" horiz-adv-x="278" 
 />
    <glyph glyph-name="afii10105" unicode="&#x458;" horiz-adv-x="222" 
 />
    <glyph glyph-name="afii10106" unicode="&#x459;" horiz-adv-x="906" 
 />
    <glyph glyph-name="afii10107" unicode="&#x45a;" horiz-adv-x="812" 
 />
    <glyph glyph-name="afii10108" unicode="&#x45b;" 
 />
    <glyph glyph-name="afii10109" unicode="&#x45c;" horiz-adv-x="437" 
 />
    <glyph glyph-name="afii10110" unicode="&#x45e;" horiz-adv-x="500" 
 />
    <glyph glyph-name="afii10193" unicode="&#x45f;" horiz-adv-x="552" 
 />
    <glyph glyph-name="afii10050" unicode="&#x490;" horiz-adv-x="489" 
 />
    <glyph glyph-name="afii10098" unicode="&#x491;" horiz-adv-x="411" 
 />
    <glyph glyph-name="afii00208" unicode="&#x2015;" horiz-adv-x="1000" 
 />
    <glyph glyph-name="afii61352" unicode="&#x2116;" horiz-adv-x="1073" 
 />
    <glyph glyph-name="pi" unicode="&#x3c0;" horiz-adv-x="690" 
 />
  </font>
</defs>
</svg>
